<svg width="158" height="203" viewBox="0 0 158 203" fill="none" xmlns="http://www.w3.org/2000/svg">
<mask id="mask0_1_7364" style="mask-type:luminance" maskUnits="userSpaceOnUse" x="37" y="106" width="83" height="97">
<path d="M37.693 106.851V162.77H37.7047C38.2315 184.391 56.5805 202.682 78.5876 202.682C100.595 202.682 118.657 184.236 119.178 162.614L119.242 106.851H37.693Z" fill="white"/>
</mask>
<g mask="url(#mask0_1_7364)">
<path d="M119.254 202.695V106.882H37.6635V202.695H119.254Z" fill="url(#paint0_linear_1_7364)"/>
</g>
<mask id="mask1_1_7364" style="mask-type:luminance" maskUnits="userSpaceOnUse" x="0" y="0" width="158" height="203">
<path d="M0 203H157.017V0H0V203Z" fill="white"/>
</mask>
<g mask="url(#mask1_1_7364)">
<path d="M74.596 12.1898C68.9186 18.6645 65.4068 14.7424 65.4068 14.7424C63.885 15.4272 69.3283 19.9719 74.9471 13.186" fill="#FEFEFE"/>
<path d="M74.596 12.1898C68.9186 18.6645 65.4068 14.7424 65.4068 14.7424C63.885 15.4272 69.3283 19.9719 74.9471 13.186" stroke="#1C1C1A"/>
<path d="M74.6544 29.1237L73.0156 34.4155C69.0356 33.1703 71.2012 27.256 66.753 26.3844C65.758 26.2599 65.1142 27.4427 64.0021 27.6295L62.6559 26.1354C62.7144 26.6957 62.7144 27.3805 62.4218 27.754C62.0121 27.1315 61.4853 26.8202 61.017 26.6334C60.9585 28.6256 61.3097 28.7501 59.8465 29.1237C58.6759 30.0575 57.7979 29.684 56.8615 29.6217L59.2612 26.5711C58.3832 27.3182 57.4468 29.4349 56.5688 28.6256C56.9785 28.0653 57.3883 27.4427 57.6224 26.5089C57.7394 25.326 58.9685 25.326 59.7879 24.8902C61.4853 24.9525 62.0706 23.8941 63.0071 23.2715C64.9971 23.6451 66.9871 24.2054 69.1527 23.7696C70.6744 25.7618 71.845 27.8785 74.6544 29.1237Z" fill="#FEFEFE"/>
<path d="M74.6544 29.1237L73.0156 34.4155C69.0356 33.1703 71.2012 27.256 66.753 26.3844C65.758 26.2599 65.1142 27.4427 64.0021 27.6295L62.6559 26.1354C62.7144 26.6957 62.7144 27.3805 62.4218 27.754C62.0121 27.1315 61.4853 26.8202 61.017 26.6334C60.9585 28.6256 61.3097 28.7501 59.8465 29.1237C58.6759 30.0575 57.7979 29.684 56.8615 29.6217L59.2612 26.5711C58.3832 27.3182 57.4468 29.435 56.5688 28.6256C56.9785 28.0653 57.3883 27.4427 57.6224 26.5089C57.7394 25.326 58.9685 25.326 59.7879 24.8902C61.4853 24.9525 62.0706 23.8941 63.0071 23.2715C64.9971 23.6451 66.9871 24.2054 69.1527 23.7696C70.6744 25.7618 71.845 27.8785 74.6544 29.1237Z" stroke="#1C1C1A"/>
<path fill-rule="evenodd" clip-rule="evenodd" d="M80.4489 3.34946C80.1562 4.84362 79.5709 5.77747 78.81 6.40004C80.3903 6.40004 81.5609 6.96034 82.79 7.52065C83.4339 5.1549 87.4139 9.51286 88.9942 8.82804C88.3503 11.6918 85.9506 10.8203 84.6044 9.13932C84.9556 10.4467 84.4873 14.7424 85.8921 17.2949C85.4824 17.2949 85.1312 17.2327 84.4874 16.4856C84.4874 18.4156 84.0777 20.5323 85.4824 21.8397C84.8971 22.0264 84.3118 21.7152 83.7265 21.3416C84.7215 22.0887 83.8436 24.2677 85.3653 25.077L84.3703 25.1393C84.1947 26.3221 84.3118 27.5673 85.9506 28.5634C89.4624 31.9252 91.4524 35.7851 93.3253 39.645C93.8521 41.0769 94.3789 42.5089 95.9592 43.754C97.1883 45.1859 98.8856 47.3026 98.0662 51.4115C96.72 53.217 93.8521 62.68 93.3839 64.5477L87.9406 63.3648C87.3553 62.6177 88.0577 54.5244 87.765 53.715L87.4724 53.2792C87.1797 50.7267 85.4824 50.3532 84.7215 49.108C83.9606 47.8007 83.5509 47.6761 82.6144 46.68L86.4774 47.7384C83.2582 45.4349 79.3953 44.3765 77.4639 40.1431C77.5029 40.1431 77.5029 40.1431 77.4639 40.1431C78.0492 40.2054 78.6344 40.2054 79.3368 39.9563C80.0977 39.5828 80.8586 38.9602 81.5609 38.2754C81.6 38.1924 81.6389 38.1094 81.678 38.0264C81.6389 38.0679 81.5804 38.1301 81.5023 38.2131C80.8585 38.8357 80.2147 39.5205 79.3953 39.8941C78.81 40.0808 78.2247 40.2054 77.4639 40.1431C77.4053 39.8318 70.9671 35.5984 69.9135 35.6606C69.5038 36.1587 69.1526 36.9058 68.5088 36.0964C66.5188 32.6723 64.2362 34.9135 63.7679 37.0925C62.5974 36.719 61.895 37.0303 61.895 38.2754C61.4853 39.2092 61.1341 40.0808 60.4903 40.8902C59.4953 41.4505 58.6173 41.0147 57.6809 40.8902C58.7929 39.8318 59.027 38.7112 59.4367 37.5906C58.91 38.2754 57.9735 40.4544 56.92 40.0808C57.6223 38.0886 57.915 35.7229 60.4317 35.5984C61.4267 35.2871 62.1877 34.789 62.5388 33.9797C63.1827 32.6723 63.7679 31.3027 64.7044 31.3027C65.9921 31.1782 69.7965 32.7968 72.8985 32.5478C72.9376 32.5478 72.9571 32.5478 72.9571 32.5478C73.0741 32.5478 73.1717 32.5478 73.2497 32.5478C74.7129 32.5478 76.2932 33.1704 77.4053 33.4816C77.6004 33.5647 77.776 33.6062 77.9321 33.6062C77.776 33.6062 77.6004 33.5439 77.4053 33.4194C76.0591 33.1081 74.4203 32.4855 73.2497 32.5478C73.1717 32.5478 73.0741 32.5478 72.9571 32.5478C73.1912 31.4272 73.4253 30.3066 74.0691 29.5595L72.4303 29.7463C74.0106 28.9369 73.9521 26.2599 74.8886 25.6373L73.718 25.8241C75.2397 24.7035 75.1812 21.8397 76.5859 20.9058L75.4153 20.8436C76.3518 20.6568 77.0542 19.5984 77.7565 18.4778L75.5909 18.6023C76.7029 17.6062 77.815 16.6724 78.5759 14.8669C76.937 16.4233 75.5909 14.9914 73.835 15.365C73.4253 15.614 73.0741 15.9253 73.1912 16.3611L74.0691 17.793L73.5423 22.5867L72.1962 18.7268L71.9036 21.5906C71.4353 20.0342 70.9085 18.4778 71.4938 16.7346C70.9085 17.0459 70.4403 17.2327 70.0891 16.6724C70.3232 15.863 71.9035 15.4895 72.84 14.4311C71.6109 13.8086 69.855 15.4272 69.3282 15.365C68.743 14.2444 69.738 13.6218 69.2697 13.3728C69.1527 12.5012 71.1426 10.6957 72.0791 10.8202C73.6594 10.8202 74.5374 9.63738 75.5324 8.70353C75.708 7.27163 76.82 6.89809 77.8735 6.46229C78.2832 5.71521 77.6394 4.09655 77.6394 3.59849C78.0491 2.22885 78.5759 1.10823 79.6879 0.236633C79.8635 2.04207 80.3318 1.66853 80.4489 3.34946ZM78.2247 33.5439C78.3027 33.4609 78.3808 33.3571 78.4588 33.2326C78.4003 33.2949 78.3418 33.4194 78.2247 33.5439ZM78.0492 33.6062C78.1272 33.6062 78.1662 33.5854 78.1662 33.5439C78.1272 33.5854 78.0882 33.6062 78.0492 33.6062Z" fill="#FEFEFE"/>
<path d="M77.4639 40.1431C79.3953 44.3765 83.2582 45.4349 86.4774 47.7384L82.6144 46.68C83.5509 47.6761 83.9606 47.8007 84.7215 49.108C85.4824 50.3532 87.1797 50.7267 87.4724 53.2792L87.765 53.715C88.0577 54.5244 87.3553 62.6177 87.9406 63.3648L93.3839 64.5477C93.8521 62.68 96.72 53.217 98.0662 51.4115C98.8856 47.3026 97.1883 45.1859 95.9592 43.754C94.3789 42.5088 93.8521 41.0769 93.3253 39.645C91.4524 35.7851 89.4624 31.9252 85.9506 28.5634C84.3118 27.5673 84.1947 26.3221 84.3703 25.1393L85.3653 25.077C83.8436 24.2677 84.7215 22.0887 83.7265 21.3416C84.3118 21.7152 84.8971 22.0264 85.4824 21.8397C84.0777 20.5323 84.4874 18.4156 84.4874 16.4856C85.1312 17.2327 85.4824 17.2949 85.8921 17.2949C84.4873 14.7424 84.9556 10.4467 84.6044 9.13932C85.9506 10.8203 88.3503 11.6918 88.9941 8.82804C87.4139 9.51286 83.4339 5.1549 82.79 7.52065C81.5609 6.96034 80.3903 6.40004 78.81 6.40004C79.5709 5.77747 80.1562 4.84362 80.4489 3.34946C80.3318 1.66853 79.8635 2.04207 79.6879 0.236633C78.5759 1.10823 78.0491 2.22885 77.6394 3.59849C77.6394 4.09655 78.2832 5.71521 77.8735 6.46229C76.82 6.89809 75.708 7.27163 75.5324 8.70353C74.5374 9.63738 73.6594 10.8202 72.0791 10.8202C71.1426 10.6957 69.1527 12.5012 69.2697 13.3728C69.738 13.6218 68.743 14.2444 69.3282 15.365C69.855 15.4272 71.6109 13.8086 72.84 14.4311C71.9035 15.4895 70.3232 15.863 70.0891 16.6724C70.4403 17.2327 70.9085 17.0459 71.4938 16.7346C70.9085 18.4778 71.4353 20.0342 71.9036 21.5906L72.1962 18.7268L73.5423 22.5867L74.0691 17.793L73.1912 16.3611C73.0741 15.9253 73.4253 15.614 73.835 15.365C75.5909 14.9914 76.937 16.4233 78.5759 14.8669C77.815 16.6724 76.7029 17.6062 75.5909 18.6023L77.7565 18.4778C77.0542 19.5984 76.3518 20.6568 75.4153 20.8436L76.5859 20.9058C75.1812 21.8397 75.2397 24.7035 73.718 25.8241L74.8886 25.6373C73.9521 26.2599 74.0106 28.9369 72.4303 29.7463L74.0691 29.5595C73.4253 30.3066 73.1912 31.4272 72.957 32.5478M77.4639 40.1431C77.5029 40.1431 77.5029 40.1431 77.4639 40.1431ZM77.4639 40.1431C78.0492 40.2054 78.6344 40.2054 79.3368 39.9563C80.0977 39.5828 80.8586 38.9602 81.5609 38.2754C81.6 38.1924 81.6389 38.1094 81.678 38.0264C81.6389 38.0679 81.5804 38.1301 81.5023 38.2131C80.8585 38.8357 80.2147 39.5205 79.3953 39.8941C78.81 40.0808 78.2247 40.2054 77.4639 40.1431ZM77.4639 40.1431C77.4053 39.8318 70.9671 35.5984 69.9135 35.6606C69.5038 36.1587 69.1526 36.9058 68.5088 36.0964C66.5188 32.6723 64.2362 34.9135 63.7679 37.0925C62.5974 36.719 61.895 37.0303 61.895 38.2754C61.4853 39.2092 61.1341 40.0808 60.4903 40.8902C59.4953 41.4505 58.6173 41.0147 57.6809 40.8902C58.7929 39.8318 59.027 38.7112 59.4367 37.5906C58.91 38.2754 57.9735 40.4544 56.92 40.0808C57.6223 38.0886 57.915 35.7229 60.4317 35.5984C61.4267 35.2871 62.1877 34.789 62.5388 33.9797C63.1827 32.6723 63.7679 31.3027 64.7044 31.3027C65.9921 31.1782 69.7965 32.7968 72.8985 32.5478C72.9376 32.5478 72.957 32.5478 72.957 32.5478M77.4639 40.1431C77.4639 40.1431 77.4443 40.1431 77.4053 40.1431M72.957 32.5478C73.0741 32.5478 73.1717 32.5478 73.2497 32.5478M73.2497 32.5478C74.7129 32.5478 76.2932 33.1704 77.4053 33.4816C77.6004 33.5647 77.776 33.6062 77.9321 33.6062M73.2497 32.5478C74.4203 32.4855 76.0591 33.1081 77.4053 33.4194C77.6004 33.5439 77.776 33.6062 77.9321 33.6062M77.9321 33.6062C77.9321 33.6062 77.9516 33.6062 77.9906 33.6062C78.0296 33.6062 78.0492 33.6062 78.0492 33.6062M78.0492 33.6062C78.1272 33.6062 78.1662 33.5854 78.1662 33.5439C78.1272 33.5854 78.0882 33.6062 78.0492 33.6062ZM81.678 37.4661C81.717 37.5491 81.7365 37.6321 81.7365 37.7151C81.7365 37.7151 81.7365 37.7358 81.7365 37.7773C81.7365 37.8604 81.717 37.9226 81.678 37.9641M78.2247 33.5439C78.3027 33.4609 78.3808 33.3571 78.4588 33.2326C78.4003 33.2949 78.3418 33.4194 78.2247 33.5439Z" stroke="#1C1C1A"/>
<path d="M100.349 6.89804C97.1298 7.89415 96.1933 6.08871 94.9056 4.71906C94.7886 3.53619 93.7936 2.85136 92.8571 2.54008C92.3889 1.48172 91.5109 0.983672 90.4574 0.983672C89.8721 0.236593 88.4674 -0.0124352 87.2968 0.485617C86.3018 0.361104 85.1312 0.547876 84.3118 1.29495C83.1412 1.35721 82.2047 1.66849 81.4438 2.72685C80.5074 2.97588 79.9806 3.59845 79.6294 4.5323C79.1612 5.09261 78.7515 5.71517 78.9271 6.4L81.6195 7.14707C82.4389 5.46615 83.6095 4.22101 85.3654 3.34942C88.3504 2.29106 91.2768 3.53619 94.2618 6.58676C95.4909 8.51671 98.7101 8.95251 100.349 6.89804Z" fill="#FEFEFE"/>
<path d="M100.349 6.89804C97.1298 7.89415 96.1933 6.08871 94.9056 4.71906C94.7886 3.53619 93.7936 2.85136 92.8571 2.54008C92.3889 1.48172 91.5109 0.983672 90.4574 0.983672C89.8721 0.236593 88.4674 -0.0124352 87.2968 0.485617C86.3018 0.361104 85.1312 0.547876 84.3118 1.29495C83.1412 1.35721 82.2047 1.66849 81.4438 2.72685C80.5074 2.97588 79.9806 3.59845 79.6294 4.5323C79.1612 5.09261 78.7515 5.71517 78.9271 6.4L81.6195 7.14707C82.4389 5.46615 83.6095 4.22101 85.3654 3.34942C88.3504 2.29106 91.2768 3.53619 94.2618 6.58676C95.4909 8.51671 98.7101 8.95251 100.349 6.89804Z" stroke="#1C1C1A"/>
<path d="M99.8806 16.6101C96.603 16.1743 96.3689 14.1198 95.725 12.2521C96.0762 11.1315 95.2568 10.3221 94.6715 9.45055C94.6129 8.26768 93.8521 7.58286 92.9156 6.96029C92.5059 6.02644 91.5695 5.21711 90.3404 5.21711C89.4624 4.6568 88.2918 4.22101 87.2968 4.53229C86.1847 4.34552 85.2482 4.15875 84.1362 4.78131C83.1412 4.84357 82.3218 4.84357 81.8536 5.71516C81.1512 6.02644 80.8 6.46224 80.5659 7.02255L83.0242 7.9564C84.4289 6.77353 85.5409 7.08481 87.5309 7.02255C90.633 7.33383 92.8571 9.69958 94.4374 13.7463C94.7886 16.0497 97.6565 17.8552 99.8806 16.6101Z" fill="#FEFEFE"/>
<path d="M99.8806 16.6101C96.603 16.1743 96.3689 14.1198 95.725 12.2521C96.0762 11.1315 95.2568 10.3221 94.6715 9.45055C94.6129 8.26768 93.8521 7.58286 92.9156 6.96029C92.5059 6.02644 91.5695 5.21711 90.3404 5.21711C89.4624 4.6568 88.2918 4.22101 87.2968 4.53229C86.1847 4.34552 85.2482 4.15875 84.1362 4.78131C83.1412 4.84357 82.3218 4.84357 81.8536 5.71516C81.1512 6.02644 80.8 6.46224 80.5659 7.02255L83.0242 7.9564C84.4289 6.77353 85.5409 7.08481 87.5309 7.02255C90.633 7.33383 92.8571 9.69958 94.4374 13.7463C94.7886 16.0497 97.6565 17.8552 99.8806 16.6101Z" stroke="#1C1C1A"/>
<path d="M79.0441 10.0731C79.0441 10.3844 78.6929 10.6957 78.2247 10.6957C77.7564 10.6957 77.4052 10.3844 77.4052 10.0731C77.4052 9.69959 77.7564 9.38831 78.2247 9.38831C78.6929 9.38831 79.0441 9.69959 79.0441 10.0731Z" fill="#FEFEFE"/>
<path d="M79.0441 10.0731C79.0441 10.3844 78.6929 10.6957 78.2247 10.6957C77.7564 10.6957 77.4052 10.3844 77.4052 10.0731C77.4052 9.69959 77.7564 9.38831 78.2247 9.38831C78.6929 9.38831 79.0441 9.69959 79.0441 10.0731Z" stroke="#1C1C1A"/>
<path d="M76.5273 9.94865C77.7564 10.4467 79.5123 10.0732 80.2732 9.26382L76.5273 9.94865Z" fill="#FEFEFE"/>
<path d="M76.5273 9.94865C77.7564 10.4467 79.5123 10.0732 80.2732 9.26382" stroke="#1C1C1A"/>
<path d="M70.2647 13.6844C70.4405 13.4351 70.7921 13.3727 71.0851 13.3727L70.2647 13.6844Z" fill="#FEFEFE"/>
<path d="M70.2647 13.6844C70.4405 13.4351 70.7921 13.3727 71.0851 13.3727" stroke="#1C1C1A"/>
<path d="M102.69 101.341L100.29 89.6371C101.461 92.8121 112.991 101.902 125.926 101.59L121.01 106.446" fill="#D52027"/>
<path d="M102.69 101.341L100.29 89.6371C101.461 92.8121 112.991 101.902 125.926 101.59L121.01 106.446" stroke="#1C1C1A"/>
<path d="M84.9556 69.7149L96.72 73.6371L103.627 70.96L104.446 62.1196L105.324 59.3803C106.26 59.6293 107.431 61.9951 107.431 61.9951C107.665 61.3725 105.675 56.143 114.279 52.9056C113.459 54.0263 113.635 55.0224 114.103 56.641C114.513 58.322 112.816 61.8706 112.816 61.8706C113.342 61.8706 116.093 59.1313 116.093 59.1313C116.737 63.9251 113.284 65.7928 113.225 66.4776C119.137 65.1079 116.796 58.1974 121.946 55.5827C121.946 55.5827 124.053 58.7578 122.473 62.1196C130.55 50.8512 137.515 57.0768 137.574 57.4504C137.632 58.0107 138.276 61.1858 136.696 60.75C132.599 60.1897 132.364 65.9173 127.038 70.1507C127.741 70.3375 132.364 67.1624 133.769 68.034C131.545 81.4814 118.493 77.5592 118.493 77.5592C116.913 76.7499 103.451 76.9989 103.451 76.9989C106.963 79.0534 114.045 79.1157 114.571 79.3647L125.282 82.1662L147.055 82.4775L151.562 89.9483L151.27 97.2323C151.27 97.2323 149.982 102.649 144.422 104.454C144.422 104.454 145.417 99.9716 140.734 97.7926C136.52 95.8004 127.155 97.7926 119.078 96.2985C111.001 94.8043 98.6515 85.0923 98.6515 85.0923C98.6515 85.0923 104.27 108.376 126.16 101.715C126.16 101.715 125.575 104.205 122.824 106.633C125.751 108.501 126.746 109.123 128.209 112.236C128.209 112.236 125.751 114.104 122.473 112.361C122.473 112.361 123.819 120.703 122.473 125.621L85.2482 117.279L84.9556 69.7149Z" fill="#FEFEFE"/>
<path d="M84.9556 69.7149L96.72 73.6371L103.627 70.96L104.446 62.1196L105.324 59.3803C106.26 59.6293 107.431 61.9951 107.431 61.9951C107.665 61.3725 105.675 56.143 114.279 52.9056C113.459 54.0263 113.635 55.0224 114.103 56.641C114.513 58.322 112.816 61.8706 112.816 61.8706C113.342 61.8706 116.093 59.1313 116.093 59.1313C116.737 63.9251 113.284 65.7928 113.225 66.4776C119.137 65.1079 116.796 58.1974 121.946 55.5827C121.946 55.5827 124.053 58.7578 122.473 62.1196C130.55 50.8512 137.515 57.0768 137.574 57.4504C137.632 58.0107 138.276 61.1858 136.696 60.75C132.599 60.1897 132.364 65.9173 127.038 70.1507C127.741 70.3375 132.364 67.1624 133.769 68.034C131.545 81.4814 118.493 77.5592 118.493 77.5592C116.913 76.7499 103.451 76.9989 103.451 76.9989C106.963 79.0534 114.045 79.1157 114.571 79.3647L125.282 82.1662L147.055 82.4775L151.562 89.9483L151.27 97.2323C151.27 97.2323 149.982 102.649 144.422 104.454C144.422 104.454 145.417 99.9716 140.734 97.7926C136.52 95.8004 127.155 97.7926 119.078 96.2985C111.001 94.8043 98.6515 85.0923 98.6515 85.0923C98.6515 85.0923 104.27 108.376 126.16 101.715C126.16 101.715 125.575 104.205 122.824 106.633C125.751 108.501 126.746 109.123 128.209 112.236C128.209 112.236 125.751 114.104 122.473 112.361C122.473 112.361 123.819 120.703 122.473 125.621L85.2482 117.279L84.9556 69.7149Z" stroke="#1C1C1A"/>
<path d="M93.9691 74.4464C106.143 92.1896 138.627 91.3802 143.544 93.4347C148.402 95.4892 147.29 99.5358 144.539 104.454C148.226 101.092 148.928 96.423 148.928 96.423" stroke="#1C1C1A" stroke-width="0.7"/>
<path d="M97.832 82.104C102.28 87.1468 107.665 90.9444 109.187 89.139C112.523 84.781 117.147 86.96 117.147 86.96C117.322 91.6915 113.225 94.4308 113.225 94.4308C114.981 94.9289 116.913 92.9366 120.6 93.1857C124.287 93.4347 125.399 96.5475 128.443 94.244C124.756 102.462 112.523 96.7343 111.235 96.1117C109.948 95.4892 99.705 91.816 97.832 82.104Z" fill="#D52027"/>
<path d="M97.832 82.104C102.28 87.1468 107.665 90.9444 109.187 89.139C112.523 84.781 117.147 86.96 117.147 86.96C117.322 91.6915 113.225 94.4308 113.225 94.4308C114.981 94.9289 116.913 92.9366 120.6 93.1857C124.287 93.4347 125.399 96.5475 128.443 94.244C124.756 102.462 112.523 96.7343 111.235 96.1117C109.948 95.4892 99.705 91.816 97.832 82.104Z" stroke="#1C1C1A" stroke-width="1.4"/>
<path d="M125.634 96.174C122.883 98.2284 120.073 94.6176 115.976 96.2362" stroke="#1C1C1A" stroke-width="0.9" stroke-linecap="round"/>
<path d="M110.884 92.065C111.294 90.7576 115.508 88.5164 115.508 88.5164" stroke="#1C1C1A" stroke-width="0.9" stroke-linecap="round"/>
<path d="M99.2369 74.4465C125.751 77.7461 127.858 51.6606 137.047 60.3765C136.637 57.0769 131.37 57.0769 131.37 57.0769" stroke="#1C1C1A" stroke-width="0.7" stroke-linecap="round"/>
<path d="M112.055 55.8317C112.055 55.8317 110.006 59.0068 110.416 61.1858" stroke="#1C1C1A" stroke-width="0.7" stroke-linecap="round"/>
<path d="M130.901 70.5243C130.901 70.5243 128.267 74.2597 125.341 75.2558" stroke="#1C1C1A" stroke-width="0.7" stroke-linecap="round"/>
<path d="M120.834 58.82C120.834 58.82 120.307 62.9912 119.371 64.1741" stroke="#1C1C1A" stroke-width="0.7" stroke-linecap="round"/>
<path d="M98.3004 90.7577C95.4909 87.3336 94.7301 82.6644 94.7301 82.6644" stroke="#1C1C1A" stroke-width="0.7" stroke-linecap="round"/>
<path d="M95.6665 93.4969C92.7401 90.7576 92.5059 86.1507 92.5059 86.1507" stroke="#1C1C1A" stroke-width="0.7" stroke-linecap="round"/>
<path d="M91.9206 95.4892C89.8721 92.9989 89.6965 89.139 89.6965 89.139" stroke="#1C1C1A" stroke-width="0.7" stroke-linecap="round"/>
<path d="M149.923 131.847C149.045 130.166 146.47 128.485 146.47 128.485C146.47 128.485 144.539 115.909 137.574 117.777C137.574 117.777 143.427 130.913 139.388 139.318C150.977 139.691 149.923 131.847 149.923 131.847Z" fill="#FEFEFE"/>
<path d="M149.923 131.847C149.045 130.166 146.47 128.485 146.47 128.485C146.47 128.485 144.539 115.909 137.574 117.777C137.574 117.777 143.427 130.913 139.388 139.318C150.977 139.691 149.923 131.847 149.923 131.847Z" stroke="#1C1C1A"/>
<path d="M128.911 171.318C126.98 173.185 128.209 178.166 130.96 179.411C133.652 180.656 136.813 177.792 140.324 181.403C140.324 181.403 136.93 181.901 136.344 182.711C143.017 182.275 142.724 187.255 145.534 189.372C142.256 190.617 134.003 187.816 132.95 188.936C132.95 188.936 136.754 190.244 136.754 193.294C132.423 190.555 131.252 193.294 128.15 192.423C124.99 191.613 123.409 189.185 122.766 187.069L120.366 173.808" fill="#FEFEFE"/>
<path d="M128.911 171.318C126.98 173.185 128.209 178.166 130.96 179.411C133.652 180.656 136.813 177.792 140.324 181.403C140.324 181.403 136.93 181.901 136.344 182.711C143.017 182.275 142.724 187.255 145.534 189.372C142.256 190.617 134.003 187.816 132.95 188.936C132.95 188.936 136.754 190.244 136.754 193.294C132.423 190.555 131.252 193.294 128.15 192.423C124.99 191.613 123.409 189.185 122.766 187.069L120.366 173.808" stroke="#1C1C1A"/>
<path d="M151.855 141.31C152.499 136.89 152.557 134.4 149.865 131.536C149.865 131.536 151.152 137.575 138.51 139.629C125.517 140.563 125.165 147.785 125.165 147.785C130.55 153.637 134.881 146.415 135.642 146.291C133.008 150.96 129.321 150.897 126.57 152.578C123.761 154.197 123.058 159.676 123.058 159.676C124.639 158.742 127.916 158.929 127.916 158.929C112.523 167.271 122.883 187.504 122.883 187.504C120.073 174.181 129.672 172.251 136.637 164.656C136.345 166.711 131.955 169.014 132.54 173.683C142.256 173.372 144.831 162.539 144.831 162.539C145.417 163.66 142.139 171.006 145.651 174.181C166.195 157.248 151.855 141.31 151.855 141.31Z" fill="#D52027"/>
<path d="M151.855 141.31C152.499 136.89 152.557 134.4 149.865 131.536C149.865 131.536 151.152 137.575 138.51 139.629C125.517 140.563 125.165 147.785 125.165 147.785C130.55 153.637 134.881 146.415 135.642 146.291C133.008 150.96 129.321 150.897 126.57 152.578C123.761 154.197 123.058 159.676 123.058 159.676C124.639 158.742 127.916 158.929 127.916 158.929C112.523 167.271 122.883 187.504 122.883 187.504C120.073 174.181 129.672 172.251 136.637 164.656C136.345 166.711 131.955 169.014 132.54 173.683C142.256 173.372 144.831 162.539 144.831 162.539C145.417 163.66 142.139 171.006 145.651 174.181C166.195 157.248 151.855 141.31 151.855 141.31Z" stroke="#1C1C1A"/>
<path d="M146.821 66.104C150.099 71.9562 146.47 74.3842 148.402 76.0028C148.402 76.0028 137.515 75.6915 139.915 66.6021C138.861 67.5359 137.808 70.7733 137.808 70.7733C137.047 67.8472 135.174 68.0962 135.057 65.4815C134.998 62.9912 137.457 61.497 137.223 59.069C136.988 56.641 130.433 51.4115 122.59 61.9328C122.766 58.9445 129.906 46.929 137.632 52.0963C146.178 48.2987 146.177 57.5749 150.275 60.3764C154.079 62.929 151.094 66.2908 151.387 69.6527C149.338 69.5281 147.582 66.104 146.821 66.104Z" fill="#D52027"/>
<path d="M146.821 66.104C150.099 71.9562 146.47 74.3842 148.402 76.0028C148.402 76.0028 137.515 75.6915 139.915 66.6021C138.861 67.5359 137.808 70.7733 137.808 70.7733C137.047 67.8472 135.174 68.0962 135.057 65.4815C134.998 62.9912 137.457 61.497 137.223 59.069C136.988 56.641 130.433 51.4115 122.59 61.9328C122.766 58.9445 129.906 46.929 137.632 52.0963C146.178 48.2987 146.177 57.5749 150.275 60.3764C154.079 62.929 151.094 66.2908 151.387 69.6527C149.338 69.5281 147.582 66.104 146.821 66.104Z" stroke="#1C1C1A"/>
<path d="M126.687 125.995C126.453 126.929 124.17 129.232 124.931 133.154C125.575 136.329 125.282 140.936 130.316 144.547C129.789 142.617 130.316 140.687 130.316 140.687C133.184 143.115 138.569 143.862 138.569 143.862C139.856 136.578 135.759 135.52 135.759 135.52C135.993 134.524 137.164 134.026 137.164 134.026C135.935 131.349 129.321 133.279 129.848 129.668C130.199 127.489 132.306 127.987 135.174 126.244" fill="#FEFEFE"/>
<path d="M126.687 125.995C126.453 126.929 124.17 129.232 124.931 133.154C125.575 136.329 125.282 140.936 130.316 144.547C129.789 142.617 130.316 140.687 130.316 140.687C133.184 143.115 138.569 143.862 138.569 143.862C139.856 136.578 135.759 135.52 135.759 135.52C135.993 134.524 137.164 134.026 137.164 134.026C135.935 131.349 129.321 133.279 129.848 129.668C130.199 127.489 132.306 127.987 135.174 126.244" stroke="#1C1C1A"/>
<path d="M142.256 122.446C142.022 126.431 149.689 134.15 139.622 139.131C141.905 137.014 142.666 134.898 142.666 134.898" stroke="#1C1C1A" stroke-width="0.7" stroke-linecap="round"/>
<path d="M152.908 90.1351C157.005 99.5981 153.552 107.754 153.552 107.754C158.176 113.606 154.313 117.466 152.791 121.45C151.27 125.372 152.382 127.365 146.295 130.789C146.295 130.789 145.885 127.738 145.358 124.874C142.958 131.411 136.988 130.975 136.988 130.975C136.11 127.365 139.856 124.252 139.798 123.007C137.34 125.497 135.057 126.68 132.95 126.929C130.843 127.115 124.873 125.559 125.283 135.333C122.883 124.003 127.39 122.135 132.306 117.777C132.306 117.777 129.497 117.217 126.512 119.396C126.512 119.396 125.107 111.427 137.281 113.419C139.447 113.419 140.208 112.049 140.208 112.049C140.208 112.049 136.696 112.547 134.706 111.614C132.657 110.742 133.008 109.248 129.087 108.563C133.418 103.52 138.686 106.633 138.686 106.633C139.095 105.761 136.227 104.516 136.227 104.516C139.271 102.4 141.144 102.711 144.07 104.641C152.265 99.5358 153.377 91.7537 146.295 82.9133C146.295 84.7188 149.046 90.2596 147.699 92.7498C143.31 90.8199 142.256 84.283 138.978 83.2246C138.978 83.8472 142.256 86.96 142.607 91.2557C142.607 91.2557 139.271 90.9444 136.93 89.7615C134.647 88.5787 134.589 82.7265 129.38 83.4114C129.38 83.4114 134.881 86.2129 134.53 93.6215C129.38 92.9366 127.448 88.6409 127.448 88.6409C127.448 88.6409 127.038 90.0106 127.975 92.0028C125.458 90.9444 125.341 90.5086 124.756 88.8899C124.053 87.1468 123.351 85.7149 122.239 84.781C121.068 83.9094 117.615 80.0495 114.103 79.3024C118.844 79.3647 122.298 80.2363 126.687 78.9911C131.135 77.746 136.11 76.6877 140.793 78.3063C145.534 79.925 148.811 80.7343 152.908 90.1351Z" fill="#D52027"/>
<path d="M152.908 90.1351C157.005 99.5981 153.552 107.754 153.552 107.754C158.176 113.606 154.313 117.466 152.791 121.45C151.27 125.372 152.382 127.365 146.295 130.789C146.295 130.789 145.885 127.738 145.358 124.874C142.958 131.411 136.988 130.975 136.988 130.975C136.11 127.365 139.856 124.252 139.798 123.007C137.34 125.497 135.057 126.68 132.95 126.929C130.843 127.115 124.873 125.559 125.283 135.333C122.883 124.003 127.39 122.135 132.306 117.777C132.306 117.777 129.497 117.217 126.512 119.396C126.512 119.396 125.107 111.427 137.281 113.419C139.447 113.419 140.208 112.049 140.208 112.049C140.208 112.049 136.696 112.547 134.706 111.614C132.657 110.742 133.008 109.248 129.087 108.563C133.418 103.52 138.686 106.633 138.686 106.633C139.095 105.761 136.227 104.516 136.227 104.516C139.271 102.4 141.144 102.711 144.07 104.641C152.265 99.5358 153.377 91.7537 146.295 82.9133C146.295 84.7188 149.046 90.2596 147.699 92.7498C143.31 90.8199 142.256 84.283 138.978 83.2246C138.978 83.8472 142.256 86.96 142.607 91.2557C142.607 91.2557 139.271 90.9444 136.93 89.7615C134.647 88.5787 134.589 82.7265 129.38 83.4114C129.38 83.4114 134.881 86.2129 134.53 93.6215C129.38 92.9366 127.448 88.6409 127.448 88.6409C127.448 88.6409 127.038 90.0106 127.975 92.0028C125.458 90.9444 125.341 90.5086 124.756 88.8899C124.053 87.1468 123.351 85.7149 122.239 84.781C121.068 83.9094 117.615 80.0495 114.103 79.3024C118.844 79.3647 122.298 80.2363 126.687 78.9911C131.135 77.746 136.11 76.6877 140.793 78.3063C145.534 79.925 148.811 80.7343 152.908 90.1351Z" stroke="#1C1C1A"/>
<path d="M151.972 141.061C149.865 161.917 114.162 157.808 122.649 187.069" stroke="#1C1C1A" stroke-width="0.7"/>
<path d="M140.149 164.718C139.154 167.582 136.52 169.014 133.828 172.625" stroke="#1C1C1A" stroke-width="0.7" stroke-linecap="round"/>
<path d="M124.639 158.306C126.863 154.757 130.609 154.571 133.125 152.827" stroke="#1C1C1A" stroke-width="0.7" stroke-linecap="round"/>
<path d="M126.863 147.287C129.321 147.224 131.252 146.353 133.301 144.921" stroke="#1C1C1A" stroke-width="0.7" stroke-linecap="round"/>
<path d="M138.393 186.446C137.457 184.765 119.605 185.45 128.56 171.753C123.175 177.294 124.405 182.399 124.405 182.399" stroke="#1C1C1A" stroke-width="0.7" stroke-linecap="round"/>
<path d="M153.494 107.816C145.417 122.384 124.756 116.532 125.107 133.279" stroke="#1C1C1A" stroke-width="0.7"/>
<path d="M139.915 128.112C142.315 126.119 143.427 122.882 143.427 122.882" stroke="#1C1C1A" stroke-width="0.7" stroke-linecap="round"/>
<path d="M147.699 127.614C148.87 126.742 149.689 122.695 149.689 122.695" stroke="#1C1C1A" stroke-width="0.7" stroke-linecap="round"/>
<path d="M128.619 116.221C131.135 114.415 134.881 115.349 134.881 115.349" stroke="#1C1C1A" stroke-width="0.7" stroke-linecap="round"/>
<path d="M140.266 104.703C142.9 105.637 143.368 108.501 143.368 108.501" stroke="#1C1C1A" stroke-width="0.7" stroke-linecap="round"/>
<path d="M132.716 108.003C135.584 107.816 139.271 109.497 139.271 109.497" stroke="#1C1C1A" stroke-width="0.7" stroke-linecap="round"/>
<path d="M146.353 170.882C150.392 166.15 151.152 161.357 151.152 161.357" stroke="#1C1C1A" stroke-width="0.7" stroke-linecap="round"/>
<path d="M136.988 140.687C134.94 140.127 119.254 130.104 133.301 126.804C124.99 127.427 126.453 133.217 126.453 133.217" stroke="#1C1C1A" stroke-width="0.7" stroke-linecap="round"/>
<path d="M146.119 89.5748C146.119 89.5748 144.714 85.2791 143.544 84.4075" stroke="#1C1C1A" stroke-width="0.7" stroke-linecap="round"/>
<path d="M140.149 88.9522C140.149 88.9522 136.403 85.7149 136.286 84.2207" stroke="#1C1C1A" stroke-width="0.7" stroke-linecap="round"/>
<path d="M131.779 90.3219C131.545 88.0806 127.682 85.1546 127.682 85.1546" stroke="#1C1C1A" stroke-width="0.7" stroke-linecap="round"/>
<path d="M145.768 72.5165C141.437 65.7928 146.821 56.5166 137.398 51.9718" stroke="#1C1C1A" stroke-width="0.7" stroke-linecap="round"/>
<path d="M129.145 180.469C125.341 178.415 128.385 172.002 128.385 172.002" stroke="#1C1C1A" stroke-width="0.7" stroke-linecap="round"/>
<path d="M130.023 133.092C126.746 129.419 131.252 127.614 131.252 127.614" stroke="#1C1C1A" stroke-width="0.7" stroke-linecap="round"/>
<path d="M140.032 138.82C140.032 138.82 144.187 138.259 147.465 134.213" stroke="#1C1C1A" stroke-width="0.7" stroke-linecap="round"/>
<path d="M144.597 103.956C146.06 101.404 144.012 96.7966 144.012 96.7966" stroke="#1C1C1A" stroke-width="0.7" stroke-linecap="round"/>
<path d="M136.988 60.3764C136.988 60.3764 133.828 59.069 131.955 60.6254" stroke="#1C1C1A" stroke-width="0.7" stroke-linecap="round"/>
<path d="M54.2861 101.341L56.7444 89.6371C55.5153 92.8121 43.9849 101.902 31.1085 101.59L36.0249 106.446" fill="#D52027"/>
<path d="M54.2861 101.341L56.7444 89.6371C55.5153 92.8121 43.9849 101.902 31.1085 101.59L36.0249 106.446" stroke="#1C1C1A"/>
<path d="M72.0791 69.7149L60.2561 73.6371L53.4082 70.96L52.5302 62.1196L51.6523 59.3803C50.7743 59.6293 49.6037 61.9951 49.6037 61.9951C49.3696 61.3725 51.3011 56.143 42.7558 52.9056C43.5167 54.0263 43.3411 55.0224 42.9314 56.641C42.4632 58.322 44.219 61.8706 44.219 61.8706C43.6923 61.8706 40.9414 59.1313 40.9414 59.1313C40.2976 63.9251 43.7508 65.7928 43.8094 66.4776C37.8394 65.1079 40.2391 58.1974 35.0885 55.5827C35.0885 55.5827 32.9814 58.7578 34.5617 62.1196C26.4261 50.8512 19.461 57.0768 19.461 57.4504C19.344 58.0107 18.7587 61.1858 20.339 60.75C24.436 60.1897 24.6702 65.9173 29.9378 70.1507C28.5331 70.1507 24.6702 67.1624 23.2069 68.034C25.4896 81.4814 38.5417 77.5592 38.5417 77.5592C40.122 76.7499 53.5838 76.9989 53.5838 76.9989C50.0135 79.0534 42.9899 79.1157 42.4632 79.3647L31.6937 82.1662L9.97929 82.4775L5.47254 89.9483L5.76519 97.2323C5.76519 97.2323 7.05281 102.649 12.6131 104.454C12.6131 104.454 11.6181 99.9716 16.3005 97.7926C20.5146 95.8004 29.8793 97.7926 37.9564 96.2985C46.0335 94.8043 58.3832 85.0923 58.3832 85.0923C58.3832 85.0923 52.7643 108.376 30.8743 101.715C30.8743 101.715 31.4011 104.205 34.2105 106.633C31.2255 108.501 30.2305 109.123 28.7672 112.236C28.7672 112.236 31.284 114.104 34.5617 112.361C34.5617 112.361 33.2155 120.703 34.5617 125.621L71.7279 117.279L72.0791 69.7149Z" fill="#FEFEFE"/>
<path d="M72.0791 69.7149L60.2561 73.6371L53.4082 70.96L52.5302 62.1196L51.6523 59.3803C50.7743 59.6293 49.6037 61.9951 49.6037 61.9951C49.3696 61.3725 51.3011 56.143 42.7558 52.9056C43.5167 54.0263 43.3411 55.0224 42.9314 56.641C42.4632 58.322 44.219 61.8706 44.219 61.8706C43.6923 61.8706 40.9414 59.1313 40.9414 59.1313C40.2976 63.9251 43.7508 65.7928 43.8094 66.4776C37.8394 65.1079 40.2391 58.1974 35.0885 55.5827C35.0885 55.5827 32.9814 58.7578 34.5617 62.1196C26.4261 50.8512 19.461 57.0768 19.461 57.4504C19.344 58.0107 18.7587 61.1858 20.339 60.75C24.436 60.1897 24.6702 65.9173 29.9378 70.1507C28.5331 70.1507 24.6702 67.1624 23.2069 68.034C25.4896 81.4814 38.5417 77.5592 38.5417 77.5592C40.122 76.7499 53.5838 76.9989 53.5838 76.9989C50.0135 79.0534 42.9899 79.1157 42.4632 79.3647L31.6937 82.1662L9.97929 82.4775L5.47254 89.9483L5.76519 97.2323C5.76519 97.2323 7.05281 102.649 12.6131 104.454C12.6131 104.454 11.6181 99.9716 16.3005 97.7926C20.5146 95.8004 29.8793 97.7926 37.9564 96.2985C46.0335 94.8043 58.3832 85.0923 58.3832 85.0923C58.3832 85.0923 52.7643 108.376 30.8743 101.715C30.8743 101.715 31.4011 104.205 34.2105 106.633C31.2255 108.501 30.2305 109.123 28.7672 112.236C28.7672 112.236 31.284 114.104 34.5617 112.361C34.5617 112.361 33.2155 120.703 34.5617 125.621L71.7279 117.279L72.0791 69.7149Z" stroke="#1C1C1A"/>
<path d="M63.007 74.4464C50.8914 92.1896 18.4076 91.3802 13.4911 93.4347C8.57461 95.4892 9.6867 99.5358 12.4961 104.454C8.75023 101.092 8.10641 96.423 8.10641 96.423" stroke="#1C1C1A" stroke-width="0.7"/>
<path d="M59.1441 82.104C54.6958 87.1468 49.3696 90.9444 47.8479 89.139C44.5117 84.781 39.8879 86.96 39.8879 86.96C39.6538 91.6915 43.8094 94.4308 43.8094 94.4308C41.995 94.9289 40.122 92.9366 36.4346 93.1857C32.7473 93.4347 31.6353 96.5475 28.5917 94.244C32.2791 102.462 44.5117 96.7343 45.7993 96.1117C47.0285 95.4892 57.3297 91.816 59.1441 82.104Z" fill="#D52027"/>
<path d="M59.1441 82.104C54.6958 87.1468 49.3696 90.9444 47.8479 89.139C44.5117 84.781 39.8879 86.96 39.8879 86.96C39.6538 91.6915 43.8094 94.4308 43.8094 94.4308C41.995 94.9289 40.122 92.9366 36.4346 93.1857C32.7473 93.4347 31.6353 96.5475 28.5917 94.244C32.2791 102.462 44.5117 96.7343 45.7993 96.1117C47.0285 95.4892 57.3297 91.816 59.1441 82.104Z" stroke="#1C1C1A" stroke-width="1.4"/>
<path d="M31.4011 96.174C34.152 98.2284 36.9029 94.6176 41.0585 96.2362" stroke="#1C1C1A" stroke-width="0.9" stroke-linecap="round"/>
<path d="M46.1506 92.065C45.6824 90.7576 41.5268 88.5164 41.5268 88.5164" stroke="#1C1C1A" stroke-width="0.9" stroke-linecap="round"/>
<path d="M57.7394 74.4465C31.2255 77.7461 29.177 51.6606 19.9878 60.3765C20.339 57.0769 25.6652 57.0769 25.6652 57.0769" stroke="#1C1C1A" stroke-width="0.7" stroke-linecap="round"/>
<path d="M44.9214 55.8317C44.9214 55.8317 46.97 59.0068 46.6188 61.1858" stroke="#1C1C1A" stroke-width="0.7" stroke-linecap="round"/>
<path d="M26.1334 70.5243C26.1334 70.5243 28.7087 74.2597 31.6937 75.2558" stroke="#1C1C1A" stroke-width="0.7" stroke-linecap="round"/>
<path d="M36.2006 58.82C36.2006 58.82 36.7274 62.9912 37.6638 64.1741" stroke="#1C1C1A" stroke-width="0.7" stroke-linecap="round"/>
<path d="M58.7345 90.7577C61.4853 87.3336 62.2462 82.6644 62.2462 82.6644" stroke="#1C1C1A" stroke-width="0.7" stroke-linecap="round"/>
<path d="M61.3683 93.4969C64.2948 90.7576 64.5288 86.1507 64.5288 86.1507" stroke="#1C1C1A" stroke-width="0.7" stroke-linecap="round"/>
<path d="M65.0556 95.4892C67.1626 92.9989 67.3382 89.139 67.3382 89.139" stroke="#1C1C1A" stroke-width="0.7" stroke-linecap="round"/>
<path d="M7.05282 131.847C7.9893 130.166 10.5061 128.485 10.5061 128.485C10.5061 128.485 12.496 115.909 19.4611 117.777C19.4611 117.777 13.6081 130.913 17.5881 139.318C6.05782 139.691 7.05282 131.847 7.05282 131.847Z" fill="#FEFEFE"/>
<path d="M7.05282 131.847C7.9893 130.166 10.5061 128.485 10.5061 128.485C10.5061 128.485 12.496 115.909 19.4611 117.777C19.4611 117.777 13.6081 130.913 17.5881 139.318C6.05782 139.691 7.05282 131.847 7.05282 131.847Z" stroke="#1C1C1A"/>
<path d="M28.0649 171.318C30.0549 173.185 28.7673 178.166 26.0749 179.411C23.3826 180.656 20.1634 177.792 16.7102 181.403C16.7102 181.403 20.0464 181.901 20.6902 182.711C13.9593 182.275 14.3105 187.255 11.5011 189.372C14.7787 190.617 23.0314 187.816 24.0849 188.936C24.0849 188.936 20.2805 190.244 20.2805 193.294C24.6117 190.555 25.7238 193.294 28.8844 192.423C31.9864 191.613 33.5667 189.185 34.2691 187.069L36.6688 173.808" fill="#FEFEFE"/>
<path d="M28.0649 171.318C30.0549 173.185 28.7673 178.166 26.0749 179.411C23.3826 180.656 20.1634 177.792 16.7102 181.403C16.7102 181.403 20.0464 181.901 20.6902 182.711C13.9593 182.275 14.3105 187.255 11.5011 189.372C14.7787 190.617 23.0314 187.816 24.0849 188.936C24.0849 188.936 20.2805 190.244 20.2805 193.294C24.6117 190.555 25.7238 193.294 28.8844 192.423C31.9864 191.613 33.5667 189.185 34.2691 187.069L36.6688 173.808" stroke="#1C1C1A"/>
<path d="M5.17995 141.31C4.53613 136.89 4.47754 134.4 7.1699 131.536C7.1699 131.536 5.82375 137.575 18.4661 139.629C31.4597 140.563 31.8694 147.785 31.8694 147.785C26.4847 153.637 22.1535 146.415 21.3926 146.291C23.9679 150.96 27.7138 150.897 30.4647 152.578C33.2156 154.197 33.9764 159.676 33.9764 159.676C32.3961 158.742 29.0599 158.929 29.0599 158.929C44.4532 167.271 34.0935 187.504 34.0935 187.504C36.9614 174.181 27.3626 172.251 20.3976 164.656C20.6903 166.711 25.08 169.014 24.4947 173.683C14.7788 173.372 12.2035 162.539 12.2035 162.539C11.5597 163.66 14.8958 171.006 11.3841 174.181C-9.21832 157.248 5.17995 141.31 5.17995 141.31Z" fill="#D52027"/>
<path d="M5.17995 141.31C4.53613 136.89 4.47754 134.4 7.1699 131.536C7.1699 131.536 5.82375 137.575 18.4661 139.629C31.4597 140.563 31.8694 147.785 31.8694 147.785C26.4847 153.637 22.1535 146.415 21.3926 146.291C23.9679 150.96 27.7138 150.897 30.4647 152.578C33.2156 154.197 33.9764 159.676 33.9764 159.676C32.3961 158.742 29.0599 158.929 29.0599 158.929C44.4532 167.271 34.0935 187.504 34.0935 187.504C36.9614 174.181 27.3626 172.251 20.3976 164.656C20.6903 166.711 25.08 169.014 24.4947 173.683C14.7788 173.372 12.2035 162.539 12.2035 162.539C11.5597 163.66 14.8958 171.006 11.3841 174.181C-9.21832 157.248 5.17995 141.31 5.17995 141.31Z" stroke="#1C1C1A"/>
<path d="M10.2135 66.104C6.93584 71.9562 10.5061 74.3842 8.57464 76.0028C8.57464 76.0028 19.5197 75.6915 17.0614 66.6021C18.1735 67.5359 19.2271 70.7733 19.2271 70.7733C19.9879 67.8472 21.8609 68.0962 21.9194 65.4815C22.0365 62.9912 19.5782 61.497 19.8123 59.069C20.0465 56.641 26.6018 51.4115 34.4447 61.9328C34.2691 58.9445 27.1285 46.929 19.4026 52.0963C10.8573 48.2987 10.7988 57.5749 6.76024 60.3764C2.95582 62.929 5.8823 66.2908 5.58965 69.6527C7.63818 69.5281 9.45261 66.104 10.2135 66.104Z" fill="#D52027"/>
<path d="M10.2135 66.104C6.93584 71.9562 10.5061 74.3842 8.57464 76.0028C8.57464 76.0028 19.5197 75.6915 17.0614 66.6021C18.1735 67.5359 19.2271 70.7733 19.2271 70.7733C19.9879 67.8472 21.8609 68.0962 21.9194 65.4815C22.0365 62.9912 19.5782 61.497 19.8123 59.069C20.0465 56.641 26.6018 51.4115 34.4447 61.9328C34.2691 58.9445 27.1285 46.929 19.4026 52.0963C10.8573 48.2987 10.7988 57.5749 6.76024 60.3764C2.95582 62.929 5.8823 66.2908 5.58965 69.6527C7.63818 69.5281 9.45261 66.104 10.2135 66.104Z" stroke="#1C1C1A"/>
<path d="M30.3476 125.995C30.5817 126.929 32.8058 129.232 32.0449 133.154C31.4596 136.329 31.7523 140.936 26.7187 144.547C27.187 142.617 26.7187 140.687 26.7187 140.687C23.7923 143.115 18.4661 143.862 18.4661 143.862C17.1784 136.578 21.2169 135.52 21.2169 135.52C20.9828 134.524 19.8708 134.026 19.8708 134.026C21.0999 131.349 27.7138 133.279 27.1285 129.668C26.7773 127.489 24.7288 127.987 21.8608 126.244" fill="#FEFEFE"/>
<path d="M30.3476 125.995C30.5817 126.929 32.8058 129.232 32.0449 133.154C31.4596 136.329 31.7523 140.936 26.7187 144.547C27.187 142.617 26.7187 140.687 26.7187 140.687C23.7923 143.115 18.4661 143.862 18.4661 143.862C17.1784 136.578 21.2169 135.52 21.2169 135.52C20.9828 134.524 19.8708 134.026 19.8708 134.026C21.0999 131.349 27.7138 133.279 27.1285 129.668C26.7773 127.489 24.7288 127.987 21.8608 126.244" stroke="#1C1C1A"/>
<path d="M14.7787 122.446C14.9543 126.431 7.34548 134.15 17.4126 139.131C15.0714 137.014 14.369 134.898 14.369 134.898" stroke="#1C1C1A" stroke-width="0.7" stroke-linecap="round"/>
<path d="M4.06784 90.1351C-0.0292217 99.5981 3.42403 107.754 3.42403 107.754C-1.14127 113.606 2.72162 117.466 4.24339 121.45C5.76516 125.372 4.59462 127.365 10.7402 130.789C10.7402 130.789 11.0914 127.738 11.6767 124.874C14.0179 131.411 19.9878 130.975 19.9878 130.975C20.9243 127.365 17.1785 124.252 17.237 123.007C19.6952 125.497 21.9778 126.68 24.0849 126.929C26.1334 127.115 32.162 125.559 31.7523 135.333C34.0934 124.003 29.6452 122.135 24.6702 117.777C24.6702 117.777 27.5382 117.217 30.4646 119.396C30.4646 119.396 31.8693 111.427 19.6952 113.419C17.5296 113.419 16.8272 112.049 16.8272 112.049C16.8272 112.049 20.2805 112.547 22.329 111.614C24.3776 110.742 24.0264 109.248 27.8893 108.563C23.5581 103.52 18.3491 106.633 18.3491 106.633C17.8808 105.761 20.7488 104.516 20.7488 104.516C17.7638 102.4 15.8908 102.711 12.9058 104.641C4.71165 99.5358 3.65815 91.7537 10.7402 82.9133C10.7402 84.7188 7.93079 90.2596 9.3355 92.7498C13.7252 90.8199 14.7787 84.283 17.9978 83.2246C17.9978 83.8472 14.7787 86.96 14.369 91.2557C14.369 91.2557 17.7637 90.9444 20.0464 89.7615C22.3875 88.5787 22.4461 82.7265 27.5967 83.4114C27.5967 83.4114 22.0949 86.2129 22.5046 93.6215C27.5967 92.9366 29.5867 88.6409 29.5867 88.6409C29.5867 88.6409 29.9379 90.0106 29.0014 92.0028C31.5182 90.9444 31.6352 90.5086 32.279 88.8899C32.9229 87.1468 33.6252 85.7149 34.7958 84.781C35.9079 83.9094 39.4197 80.0495 42.9314 79.3024C38.132 79.3647 34.6787 80.2363 30.289 78.9911C25.8993 77.746 20.9243 76.6877 16.1834 78.3063C11.5011 79.925 8.16491 80.7343 4.06784 90.1351Z" fill="#D52027"/>
<path d="M4.06784 90.1351C-0.0292217 99.5981 3.42403 107.754 3.42403 107.754C-1.14127 113.606 2.72162 117.466 4.24339 121.45C5.76516 125.372 4.59462 127.365 10.7402 130.789C10.7402 130.789 11.0914 127.738 11.6767 124.874C14.0179 131.411 19.9878 130.975 19.9878 130.975C20.9243 127.365 17.1785 124.252 17.237 123.007C19.6952 125.497 21.9778 126.68 24.0849 126.929C26.1334 127.115 32.162 125.559 31.7523 135.333C34.0934 124.003 29.6452 122.135 24.6702 117.777C24.6702 117.777 27.5382 117.217 30.4646 119.396C30.4646 119.396 31.8693 111.427 19.6952 113.419C17.5296 113.419 16.8272 112.049 16.8272 112.049C16.8272 112.049 20.2805 112.547 22.329 111.614C24.3776 110.742 24.0264 109.248 27.8893 108.563C23.5581 103.52 18.3491 106.633 18.3491 106.633C17.8808 105.761 20.7488 104.516 20.7488 104.516C17.7637 102.4 15.8908 102.711 12.9058 104.641C4.71165 99.5358 3.65815 91.7537 10.7402 82.9133C10.7402 84.7188 7.93079 90.2596 9.3355 92.7498C13.7252 90.8199 14.7787 84.283 17.9978 83.2246C17.9978 83.8472 14.7787 86.96 14.369 91.2557C14.369 91.2557 17.7637 90.9444 20.0464 89.7615C22.3875 88.5787 22.4461 82.7265 27.5967 83.4114C27.5967 83.4114 22.0949 86.2129 22.5046 93.6215C27.5967 92.9366 29.5867 88.6409 29.5867 88.6409C29.5867 88.6409 29.9379 90.0106 29.0014 92.0028C31.5182 90.9444 31.6352 90.5086 32.279 88.8899C32.9229 87.1468 33.6252 85.7149 34.7958 84.781C35.9079 83.9094 39.4197 80.0495 42.9315 79.3024C38.132 79.3647 34.6787 80.2363 30.289 78.9911C25.8993 77.746 20.9243 76.6877 16.1834 78.3063C11.5011 79.925 8.16491 80.7343 4.06784 90.1351Z" stroke="#1C1C1A"/>
<path d="M5.06281 141.061C7.16987 161.917 42.8729 157.808 34.3861 187.069" stroke="#1C1C1A" stroke-width="0.7"/>
<path d="M16.8858 164.718C17.8808 167.582 20.5146 169.014 23.1484 172.625" stroke="#1C1C1A" stroke-width="0.7" stroke-linecap="round"/>
<path d="M32.3962 158.306C30.1721 154.757 26.4261 154.571 23.8508 152.827" stroke="#1C1C1A" stroke-width="0.7" stroke-linecap="round"/>
<path d="M30.1135 147.287C27.7138 147.224 25.7823 146.353 23.6753 144.921" stroke="#1C1C1A" stroke-width="0.7" stroke-linecap="round"/>
<path d="M18.6417 186.446C19.5782 184.765 37.4296 185.45 28.4746 171.753C33.8593 177.294 32.5717 182.399 32.5717 182.399" stroke="#1C1C1A" stroke-width="0.7" stroke-linecap="round"/>
<path d="M3.54108 107.816C11.6182 122.384 32.2791 116.532 31.8694 133.279" stroke="#1C1C1A" stroke-width="0.7"/>
<path d="M17.1199 128.112C14.7202 126.119 13.5496 122.882 13.5496 122.882" stroke="#1C1C1A" stroke-width="0.7" stroke-linecap="round"/>
<path d="M9.27701 127.614C8.16495 126.742 7.34551 122.695 7.34551 122.695" stroke="#1C1C1A" stroke-width="0.7" stroke-linecap="round"/>
<path d="M28.4162 116.221C25.8994 114.415 22.1535 115.349 22.1535 115.349" stroke="#1C1C1A" stroke-width="0.7" stroke-linecap="round"/>
<path d="M16.7687 104.703C14.1349 105.637 13.6667 108.501 13.6667 108.501" stroke="#1C1C1A" stroke-width="0.7" stroke-linecap="round"/>
<path d="M24.3191 108.003C21.3926 107.816 17.7638 109.497 17.7638 109.497" stroke="#1C1C1A" stroke-width="0.7" stroke-linecap="round"/>
<path d="M10.6817 170.882C6.64311 166.15 5.82374 161.357 5.82374 161.357" stroke="#1C1C1A" stroke-width="0.7" stroke-linecap="round"/>
<path d="M19.9878 140.687C22.0364 140.127 37.7808 130.104 23.7337 126.804C32.0449 127.427 30.5817 133.217 30.5817 133.217" stroke="#1C1C1A" stroke-width="0.7" stroke-linecap="round"/>
<path d="M10.8573 89.5748C10.8573 89.5748 12.3205 85.2791 13.4911 84.4075" stroke="#1C1C1A" stroke-width="0.7" stroke-linecap="round"/>
<path d="M16.8272 88.9522C16.8272 88.9522 20.6317 85.7149 20.7487 84.2207" stroke="#1C1C1A" stroke-width="0.7" stroke-linecap="round"/>
<path d="M25.2555 90.3219C25.4896 88.0806 29.3526 85.1546 29.3526 85.1546" stroke="#1C1C1A" stroke-width="0.7" stroke-linecap="round"/>
<path d="M11.2669 72.5165C15.5396 65.7928 10.2134 56.5166 19.5781 51.9718" stroke="#1C1C1A" stroke-width="0.7" stroke-linecap="round"/>
<path d="M27.8893 180.469C31.6937 178.415 28.6502 172.002 28.6502 172.002" stroke="#1C1C1A" stroke-width="0.7" stroke-linecap="round"/>
<path d="M26.9529 133.092C30.2305 129.419 25.7823 127.614 25.7823 127.614" stroke="#1C1C1A" stroke-width="0.7" stroke-linecap="round"/>
<path d="M17.0028 138.82C17.0028 138.82 12.7887 138.259 9.51104 134.213" stroke="#1C1C1A" stroke-width="0.7" stroke-linecap="round"/>
<path d="M12.4375 103.956C10.9743 101.404 13.0228 96.7966 13.0228 96.7966" stroke="#1C1C1A" stroke-width="0.7" stroke-linecap="round"/>
<path d="M20.0464 60.3764C20.0464 60.3764 23.207 59.069 25.0214 60.6254" stroke="#1C1C1A" stroke-width="0.7" stroke-linecap="round"/>
</g>
<mask id="mask2_1_7364" style="mask-type:luminance" maskUnits="userSpaceOnUse" x="0" y="0" width="158" height="203">
<path d="M0 203H157.017V0H0V203Z" fill="white"/>
</mask>
<g mask="url(#mask2_1_7364)">
<path d="M37.6637 106.882V162.788H37.7223C38.249 184.391 56.5687 202.695 78.5758 202.695C100.583 202.695 118.669 184.267 119.195 162.602L119.254 106.882H37.6637Z" stroke="#1C1C1A" stroke-linecap="round"/>
<path d="M69.7964 89.7615C69.7964 90.6331 70.8499 94.1195 68.2746 97.2946C65.3481 95.2401 61.3681 94.4308 58.9684 97.4813C56.5102 100.47 60.3731 102.026 60.0805 103.583C58.5002 106.509 58.5587 106.695 58.8514 110.368C59.2026 114.042 63.1825 114.291 64.5287 119.271C66.4602 116.034 74.6543 116.719 77.932 113.917C81.3852 110.929 81.7364 109.123 82.9655 106.695L92.3888 97.7304C89.0526 96.672 87.5894 93.4969 87.7065 90.0728L69.7964 89.7615Z" fill="#FEFEFE"/>
<path d="M69.7964 89.7615C69.7964 90.6331 70.8499 94.1195 68.2746 97.2946C65.3481 95.2401 61.3681 94.4308 58.9684 97.4813C56.5102 100.47 60.3731 102.026 60.0805 103.583C58.5002 106.509 58.5587 106.695 58.8514 110.368C59.2026 114.042 63.1825 114.291 64.5287 119.271C66.4602 116.034 74.6543 116.719 77.932 113.917C81.3852 110.929 81.7364 109.123 82.9655 106.695L92.3888 97.7304C89.0526 96.672 87.5894 93.4969 87.7065 90.0728L69.7964 89.7615Z" stroke="#1C1C1A" stroke-width="0.5"/>
<path d="M83.5508 106.82C90.6914 106.82 90.8086 106.82 97.0712 106.82C100.817 100.345 97.5979 98.1661 94.0862 98.1661C90.6329 98.1661 86.5359 100.47 83.5508 106.82Z" stroke="#1C1C1A" stroke-width="0.5"/>
<path d="M67.3382 89.8238C65.5823 94.9288 78.0491 96.8587 85.5408 91.816C93.0326 86.8354 96.4274 68.034 85.0726 66.2908C73.6594 64.5476 63.5923 67.5359 64.5287 75.1312C68.0405 79.0534 69.5038 86.96 67.3382 89.8238Z" fill="#FEFEFE"/>
<path d="M67.3382 89.8238C65.5823 94.9288 78.0491 96.8587 85.5408 91.816C93.0326 86.8354 96.4274 68.034 85.0726 66.2908C73.6594 64.5476 63.5923 67.5359 64.5287 75.1312C68.0405 79.0534 69.5038 86.96 67.3382 89.8238Z" stroke="#1C1C1A" stroke-width="0.5"/>
<path d="M64.9385 75.2557C67.8649 82.0417 69.1526 82.9133 67.5723 90.0105C70.4988 91.7537 77.5808 93.1234 83.1996 89.5125C88.8185 85.9639 86.1846 75.5048 86.1846 75.5048C75.8249 79.0534 67.3382 77.746 64.9385 75.2557Z" fill="#E41E25"/>
<path d="M64.9385 75.2557C67.8649 82.0417 69.1526 82.9133 67.5723 90.0105C70.4988 91.7537 77.5808 93.1234 83.1996 89.5125C88.8185 85.9639 86.1846 75.5048 86.1846 75.5048C75.8249 79.0534 67.3382 77.746 64.9385 75.2557Z" stroke="#1C1C1A" stroke-width="0.5"/>
<path d="M68.0991 91.0689C63.0656 87.7693 57.8564 76.9367 65.6993 75.3803C68.5673 75.8161 66.1676 72.641 65.6408 74.6332C54.7543 75.6293 61.0756 87.0845 67.8065 91.567C69.2112 93.2479 70.0891 91.3802 68.0991 91.0689Z" fill="#FEFEFE"/>
<path d="M68.0991 91.0689C63.0656 87.7693 57.8564 76.9367 65.6993 75.3803C68.5673 75.8161 66.1676 72.641 65.6408 74.6332C54.7543 75.6293 61.0756 87.0845 67.8065 91.567C69.2112 93.2479 70.0891 91.3802 68.0991 91.0689Z" stroke="#1C1C1A" stroke-width="0.5"/>
<path d="M66.6367 74.7581C66.6367 74.8828 66.4608 75.0075 66.285 75.0075C66.0506 75.0075 65.9334 74.8828 65.9334 74.6958C65.9334 74.5088 66.1092 74.3842 66.285 74.3842C66.4608 74.4465 66.6367 74.5711 66.6367 74.7581Z" fill="#FCD904"/>
<path d="M66.6367 74.7581C66.6367 74.8828 66.4608 75.0075 66.285 75.0075C66.0506 75.0075 65.9334 74.8828 65.9334 74.6958C65.9334 74.5088 66.1092 74.3842 66.285 74.3842C66.4608 74.4465 66.6367 74.5711 66.6367 74.7581Z" stroke="#1C1C1A" stroke-width="0.5" stroke-linecap="round"/>
<path d="M74.4787 92.0028C70.4987 88.3296 70.6158 79.1156 74.0691 76.6254C76.4688 77.3102 74.3617 73.7616 73.4838 75.9406C66.3432 77.8083 68.5673 87.1467 73.7764 92.1895C74.5373 94.493 76.7614 92.314 74.4787 92.0028Z" fill="#FEFEFE"/>
<path d="M74.4787 92.0028C70.4987 88.3296 70.6158 79.1156 74.0691 76.6254C76.4688 77.3102 74.3617 73.7616 73.4838 75.9406C66.3432 77.8083 68.5673 87.1467 73.7764 92.1895C74.5373 94.493 76.7614 92.314 74.4787 92.0028Z" stroke="#1C1C1A" stroke-width="0.5"/>
<path d="M74.6551 76.0655C74.6551 76.2525 74.538 76.3771 74.3036 76.3771C74.1278 76.3771 74.0106 76.1901 74.0106 76.0655C74.0106 75.8785 74.1278 75.7538 74.3622 75.7538C74.538 75.7538 74.7137 75.8785 74.6551 76.0655Z" fill="#FCD904"/>
<path d="M74.6551 76.0655C74.6551 76.2525 74.538 76.3771 74.3036 76.3771C74.1278 76.3771 74.0106 76.1901 74.0106 76.0655C74.0106 75.8785 74.1278 75.7538 74.3622 75.7538C74.538 75.7538 74.7137 75.8785 74.6551 76.0655Z" stroke="#1C1C1A" stroke-width="0.5" stroke-linecap="round"/>
<path d="M75.0062 92.6879C75.0062 92.8126 74.889 92.9372 74.7132 92.9372C74.596 92.9372 74.4202 92.8126 74.4202 92.6879C74.4788 92.5632 74.596 92.4386 74.7132 92.4386C74.889 92.4386 75.0062 92.5632 75.0062 92.6879Z" fill="#FCD904"/>
<path d="M75.0062 92.6879C75.0062 92.8126 74.889 92.9372 74.7132 92.9372C74.596 92.9372 74.4202 92.8126 74.4202 92.6879C74.4788 92.5632 74.596 92.4386 74.7132 92.4386C74.889 92.4386 75.0062 92.5632 75.0062 92.6879Z" stroke="#1C1C1A" stroke-width="0.5" stroke-linecap="round"/>
<path d="M71.3767 91.816C67.1626 88.3919 62.7143 77.6215 69.7964 76.2518C72.6643 76.5631 69.8549 73.5126 69.2697 75.4425C59.0855 75.7538 65.5238 87.5825 71.0255 92.314C72.0205 94.0572 73.7179 91.9405 71.3767 91.816Z" fill="#FEFEFE"/>
<path d="M71.3767 91.816C67.1626 88.3919 62.7143 77.6215 69.7964 76.2518C72.6643 76.5631 69.8549 73.5126 69.2697 75.4425C59.0855 75.7538 65.5238 87.5825 71.0255 92.314C72.0205 94.0572 73.7179 91.9405 71.3767 91.816Z" stroke="#1C1C1A" stroke-width="0.5"/>
<path d="M70.4411 75.5674C70.3825 75.7544 70.2653 75.879 70.0309 75.879C69.8551 75.879 69.7379 75.7544 69.7379 75.5674C69.7379 75.3804 69.9137 75.2557 70.0895 75.2557C70.2653 75.2557 70.4411 75.4427 70.4411 75.5674Z" fill="#FEFEFE"/>
<path d="M70.4411 75.5674C70.3825 75.7544 70.2653 75.879 70.0309 75.879C69.8551 75.879 69.7379 75.7544 69.7379 75.5674C69.7379 75.3804 69.9137 75.2557 70.0895 75.2557C70.2653 75.2557 70.4411 75.4427 70.4411 75.5674Z" stroke="#1C1C1A" stroke-width="0.5" stroke-linecap="round"/>
<path d="M72.1382 92.4388C72.1382 92.6258 72.021 92.6882 71.8452 92.6882C71.728 92.6882 71.6109 92.5635 71.6109 92.4388C71.6109 92.3142 71.728 92.1895 71.8452 92.1895C72.021 92.1895 72.1382 92.3142 72.1382 92.4388Z" fill="#FEFEFE"/>
<path d="M72.1382 92.4388C72.1382 92.6258 72.021 92.6882 71.8452 92.6882C71.728 92.6882 71.6109 92.5635 71.6109 92.4388C71.6109 92.3142 71.728 92.1895 71.8452 92.1895C72.021 92.1895 72.1382 92.3142 72.1382 92.4388Z" stroke="#1C1C1A" stroke-width="0.5" stroke-linecap="round"/>
<path d="M68.8605 91.7541C68.8605 91.8164 68.7433 91.941 68.6261 91.941C68.5089 91.941 68.3918 91.8164 68.3918 91.6917C68.3918 91.5671 68.5089 91.5047 68.6261 91.5047C68.7433 91.5047 68.8605 91.6294 68.8605 91.7541Z" fill="#FCD904"/>
<path d="M68.8605 91.7541C68.8605 91.8164 68.7433 91.941 68.6261 91.941C68.5089 91.941 68.3918 91.8164 68.3918 91.6917C68.3918 91.5671 68.5089 91.5047 68.6261 91.5047C68.7433 91.5047 68.8605 91.6294 68.8605 91.7541Z" stroke="#1C1C1A" stroke-width="0.5" stroke-linecap="round"/>
<path d="M68.8015 96.4852C67.4553 98.9132 61.2512 106.82 66.3433 108.687C71.3768 110.493 82.8486 96.7342 89.8136 96.2361C89.8136 96.2361 90.9841 96.1116 90.4574 96.8587C82.7315 97.9171 72.0791 111.676 66.0506 109.497C60.0221 107.38 66.5188 98.6642 67.3967 97.3568C68.2747 96.1116 68.8015 96.4852 68.8015 96.4852Z" fill="#E41E25"/>
<path d="M68.8015 96.4852C67.4553 98.9132 61.2512 106.82 66.3433 108.687C71.3768 110.493 82.8486 96.7342 89.8136 96.2361C89.8136 96.2361 90.9841 96.1116 90.4574 96.8587C82.7315 97.9171 72.0791 111.676 66.0506 109.497C60.0221 107.38 66.5188 98.6642 67.3967 97.3568C68.2747 96.1116 68.8015 96.4852 68.8015 96.4852Z" stroke="#1C1C1A" stroke-width="0.5"/>
<path d="M66.3432 108.625H66.4017C66.5188 108.688 66.5773 108.812 66.5773 108.937L66.2846 110.119C66.2261 110.244 66.109 110.306 65.992 110.244H65.9334C65.8164 110.244 65.6994 110.057 65.7579 109.933L66.0505 108.812C66.1091 108.688 66.2261 108.625 66.3432 108.625Z" fill="#E41E25"/>
<path d="M66.3432 108.625H66.4017C66.5188 108.688 66.5773 108.812 66.5773 108.937L66.2846 110.119C66.2261 110.244 66.109 110.306 65.992 110.244H65.9334C65.8164 110.244 65.6994 110.057 65.7579 109.933L66.0505 108.812C66.1091 108.688 66.2261 108.625 66.3432 108.625Z" stroke="#1C1C1A" stroke-width="0.5" stroke-linecap="round"/>
<path d="M66.987 112.049C66.8114 112.983 66.0505 113.606 65.3482 113.419C64.6458 113.295 64.2361 112.361 64.4117 111.427C64.6458 110.493 65.3482 109.933 66.0506 110.057C66.7529 110.244 67.2211 111.116 66.987 112.049Z" fill="#E41E25"/>
<path d="M66.987 112.049C66.8114 112.983 66.0505 113.606 65.3482 113.419C64.6458 113.295 64.2361 112.361 64.4117 111.427C64.6458 110.493 65.3482 109.933 66.0506 110.057C66.7529 110.244 67.2211 111.116 66.987 112.049Z" stroke="#1C1C1A" stroke-width="0.5" stroke-linecap="round"/>
<path d="M66.6944 111.987C66.5188 112.672 65.9921 113.17 65.4653 113.045C64.88 112.921 64.5873 112.236 64.7629 111.551C64.88 110.804 65.4652 110.368 65.992 110.493C66.5188 110.617 66.8115 111.302 66.6944 111.987Z" fill="#E41E25"/>
<path d="M66.6944 111.987C66.5188 112.672 65.9921 113.17 65.4653 113.045C64.88 112.921 64.5873 112.236 64.7629 111.551C64.88 110.804 65.4652 110.368 65.992 110.493C66.5188 110.617 66.8115 111.302 66.6944 111.987Z" stroke="#1C1C1A" stroke-width="0.7" stroke-linecap="round"/>
<path d="M62.0705 95.3646C60.8414 95.3023 59.6122 95.6759 58.6757 96.6097C56.8028 99.1 59.6707 102.711 59.5537 103.396C59.4952 104.081 58.7343 105.637 58.4417 107.567C58.149 109.808 58.7929 114.228 61.3682 115.536C63.5923 116.594 64.3531 119.147 64.5287 119.769C65.6408 119.084 67.0455 117.901 69.0355 117.528C71.0255 117.092 74.4202 116.781 78.4587 114.602C82.4973 112.361 83.4923 104.952 87.1797 101.59C90.867 98.2907 97.1296 95.2401 98.7099 102.088C99.2367 94.5553 91.1011 96.423 86.5358 100.345C82.2632 104.081 81.8535 110.431 77.5808 113.294C73.1326 116.158 70.8499 115.224 68.3917 116.096C66.2846 116.843 65.1726 117.652 64.997 117.777C64.9384 117.59 64.3531 115.847 62.7143 115.038C57.0369 112.361 59.9049 103.956 60.0805 103.458C60.2561 103.022 59.9634 102.649 59.8463 102.213C59.6707 101.777 55.5737 94.8666 65.0555 95.8004C64.119 95.5514 63.0655 95.3646 62.0705 95.3646Z" fill="#E41E25"/>
<path d="M62.0705 95.3646C60.8414 95.3023 59.6122 95.6759 58.6757 96.6097C56.8028 99.1 59.6707 102.711 59.5537 103.396C59.4952 104.081 58.7343 105.637 58.4417 107.567C58.149 109.808 58.7929 114.228 61.3682 115.536C63.5923 116.594 64.3531 119.147 64.5287 119.769C65.6408 119.084 67.0455 117.901 69.0355 117.528C71.0255 117.092 74.4202 116.781 78.4587 114.602C82.4973 112.361 83.4923 104.952 87.1797 101.59C90.867 98.2907 97.1296 95.2401 98.7099 102.088C99.2367 94.5553 91.1011 96.423 86.5358 100.345C82.2632 104.081 81.8535 110.431 77.5808 113.294C73.1326 116.158 70.8499 115.224 68.3917 116.096C66.2846 116.843 65.1726 117.652 64.997 117.777C64.9384 117.59 64.3531 115.847 62.7143 115.038C57.0369 112.361 59.9049 103.956 60.0805 103.458C60.2561 103.022 59.9634 102.649 59.8463 102.213C59.6707 101.777 55.5737 94.8666 65.0555 95.8004C64.119 95.5514 63.0655 95.3646 62.0705 95.3646Z" stroke="#1C1C1A" stroke-width="0.5"/>
<path d="M78.4587 91.4424C75.7664 87.6448 76.0005 78.8043 79.1611 76.3141C81.3852 76.9989 79.3952 73.5125 78.6344 75.6915C71.962 78.5553 73.7179 87.2712 77.8149 91.6292C78.5173 93.9327 80.5658 91.7537 78.4587 91.4424Z" fill="#FEFEFE"/>
<path d="M78.4587 91.4424C75.7664 87.6448 76.0005 78.8043 79.1611 76.3141C81.3852 76.9989 79.3952 73.5125 78.6344 75.6915C71.962 78.5553 73.7179 87.2712 77.8149 91.6292C78.5173 93.9327 80.5658 91.7537 78.4587 91.4424Z" stroke="#1C1C1A" stroke-width="0.5"/>
<path d="M79.7472 75.7542C79.7472 75.9411 79.5714 76.0658 79.3956 76.0658C79.2198 76.0658 79.1026 75.9411 79.1026 75.7542C79.1026 75.5672 79.2198 75.4425 79.3956 75.4425C79.5714 75.4425 79.7472 75.6295 79.7472 75.7542Z" fill="#FEFEFE"/>
<path d="M79.7472 75.7542C79.7472 75.9411 79.5714 76.0658 79.3956 76.0658C79.2198 76.0658 79.1026 75.9411 79.1026 75.7542C79.1026 75.5672 79.2198 75.4425 79.3956 75.4425C79.5714 75.4425 79.7472 75.6295 79.7472 75.7542Z" stroke="#1C1C1A" stroke-width="0.5" stroke-linecap="round"/>
<path d="M78.9276 92.0653C78.9276 92.19 78.8104 92.3146 78.6932 92.3146C78.5174 92.3146 78.4002 92.19 78.4002 92.0653C78.4588 91.9407 78.576 91.816 78.6932 91.816C78.869 91.816 78.9862 91.9407 78.9276 92.0653Z" fill="#FEFEFE"/>
<path d="M78.9276 92.0653C78.9276 92.19 78.8104 92.3146 78.6932 92.3146C78.5174 92.3146 78.4002 92.19 78.4002 92.0653C78.4588 91.9407 78.576 91.816 78.6932 91.816C78.869 91.816 78.9862 91.9407 78.9276 92.0653Z" stroke="#1C1C1A" stroke-width="0.5" stroke-linecap="round"/>
<path d="M82.9071 90.3218C81.7365 86.1507 81.9121 78.7421 83.6095 75.6293C85.8336 76.2519 83.8436 72.89 83.0827 74.9445C78.2833 78.8044 79.9221 85.4658 82.2633 90.4464C82.9656 92.6876 85.0141 90.6331 82.9071 90.3218Z" fill="#FEFEFE"/>
<path d="M82.9071 90.3218C81.7365 86.1507 81.9121 78.7421 83.6095 75.6293C85.8336 76.2519 83.8436 72.89 83.0827 74.9445C78.2833 78.8044 79.9221 85.4658 82.2633 90.4464C82.9656 92.6876 85.0141 90.6331 82.9071 90.3218Z" stroke="#1C1C1A" stroke-width="0.5"/>
<path d="M84.1955 75.0693C84.1955 75.194 84.0196 75.3186 83.8438 75.3186C83.668 75.3186 83.5508 75.194 83.5508 75.007C83.5508 74.8823 83.668 74.7577 83.8438 74.7577C84.0196 74.7577 84.1955 74.8823 84.1955 75.0693Z" fill="#FEFEFE"/>
<path d="M84.1955 75.0693C84.1955 75.194 84.0196 75.3186 83.8438 75.3186C83.668 75.3186 83.5508 75.194 83.5508 75.007C83.5508 74.8823 83.668 74.7577 83.8438 74.7577C84.0196 74.7577 84.1955 74.8823 84.1955 75.0693Z" stroke="#1C1C1A" stroke-width="0.5" stroke-linecap="round"/>
<path d="M83.3759 90.8824C83.3759 91.0071 83.2587 91.1318 83.1415 91.1318C82.9657 91.1318 82.8485 91.0071 82.8485 90.8824C82.9071 90.7578 83.0243 90.6331 83.1415 90.6331C83.3173 90.6331 83.4345 90.7578 83.3759 90.8824Z" fill="#FEFEFE"/>
<path d="M83.3759 90.8824C83.3759 91.0071 83.2587 91.1318 83.1415 91.1318C82.9657 91.1318 82.8485 91.0071 82.8485 90.8824C82.9071 90.7578 83.0243 90.6331 83.1415 90.6331C83.3173 90.6331 83.4345 90.7578 83.3759 90.8824Z" stroke="#1C1C1A" stroke-width="0.5" stroke-linecap="round"/>
<path d="M74.0691 74.3219C77.3467 72.3919 78.9271 70.5242 78.9271 70.5242C78.9271 70.5242 78.4002 72.3919 81.4438 74.5087C81.912 71.7694 85.6579 70.1507 85.6579 70.1507C86.0677 76.5009 99.0611 85.0923 111.938 77.995C106.085 77.8083 100.993 76.3764 98.9441 74.4464C98.9441 74.4464 103.1 75.1312 105.382 71.5203C107.665 67.9095 103.861 62.9289 105.265 59.1313C105.265 59.1313 103.275 60.999 103.275 64.0496C103.275 67.2869 103.275 69.1546 101.578 71.0223C99.8806 72.89 96.4858 71.3336 94.0861 70.3997C91.745 69.5281 82.3803 68.034 75.5323 68.034" fill="#D52027"/>
<path d="M74.0691 74.3219C77.3467 72.3919 78.9271 70.5242 78.9271 70.5242C78.9271 70.5242 78.4002 72.3919 81.4438 74.5087C81.912 71.7694 85.6579 70.1507 85.6579 70.1507C86.0677 76.5009 99.0611 85.0923 111.938 77.995C106.085 77.8083 100.993 76.3764 98.9441 74.4464C98.9441 74.4464 103.1 75.1312 105.382 71.5203C107.665 67.9095 103.861 62.9289 105.265 59.1313C105.265 59.1313 103.275 60.999 103.275 64.0496C103.275 67.2869 103.275 69.1546 101.578 71.0223C99.8806 72.89 96.4858 71.3336 94.0861 70.3997C91.745 69.5281 82.3803 68.034 75.5323 68.034" stroke="#1C1C1A"/>
<path d="M74.1861 74.3219C70.9085 72.3919 70.4988 70.5242 70.4988 70.5242C70.4988 70.5242 70.0891 72.9523 64.2947 74.8822C65.1141 73.6371 65.3482 71.6449 65.3482 71.6449C61.2511 72.7655 57.5638 84.8433 44.9799 77.8705C50.8914 77.6215 50.3061 76.5631 57.9735 74.4464C56.4517 73.4503 53.8764 75.1312 51.5352 71.5203C49.2526 67.9095 53.1155 62.9912 51.6523 59.1935C51.6523 59.1935 53.7008 61.0612 53.7008 64.1118C53.7008 67.3492 53.7008 69.1546 55.3396 71.0223C57.037 72.89 60.4317 71.3336 62.8314 70.3997C65.1726 69.5281 68.6258 68.034 75.5323 68.034" fill="#D52027"/>
<path d="M74.1861 74.3219C70.9085 72.3919 70.4988 70.5242 70.4988 70.5242C70.4988 70.5242 70.0891 72.9523 64.2947 74.8822C65.1141 73.6371 65.3482 71.6449 65.3482 71.6449C61.2511 72.7655 57.5638 84.8433 44.9799 77.8705C50.8914 77.6215 50.3061 76.5631 57.9735 74.4464C56.4517 73.4503 53.8764 75.1312 51.5352 71.5203C49.2526 67.9095 53.1155 62.9912 51.6523 59.1935C51.6523 59.1935 53.7008 61.0612 53.7008 64.1118C53.7008 67.3492 53.7008 69.1546 55.3396 71.0223C57.037 72.89 60.4317 71.3336 62.8314 70.3997C65.1726 69.5281 68.6258 68.034 75.5323 68.034" stroke="#1C1C1A"/>
<path d="M62.4802 64.6721C62.4802 64.6721 70.4403 62.4308 78.4003 62.4308C86.3603 62.4308 94.3203 64.6721 94.3203 64.6721L93.2082 69.1545C93.2082 69.1545 83.3168 67.4736 78.4003 67.4736C73.4838 67.4736 63.5923 69.1545 63.5923 69.1545L62.4802 64.6721Z" fill="#E41E25"/>
<path d="M62.4802 64.6721C62.4802 64.6721 70.4403 62.4308 78.4003 62.4308C86.3603 62.4308 94.3203 64.6721 94.3203 64.6721L93.2082 69.1545C93.2082 69.1545 83.3168 67.4736 78.4003 67.4736C73.4838 67.4736 63.5923 69.1545 63.5923 69.1545L62.4802 64.6721Z" stroke="#1C1C1A" stroke-width="0.5" stroke-linecap="round"/>
<path d="M63.5923 69.2791C63.5923 69.2791 69.5038 67.0379 78.4588 67.0379C87.4138 67.0379 93.3253 69.2791 93.3253 69.2791C93.8521 69.4659 93.7935 70.1507 93.3253 70.3375C93.3253 70.3375 87.4138 68.0963 78.4588 68.0963C69.5038 68.0963 63.5923 70.3375 63.5923 70.3375C63.0655 70.1507 63.1826 69.4659 63.5923 69.2791Z" fill="#E41E25"/>
<path d="M63.5923 69.2791C63.5923 69.2791 69.5038 67.0379 78.4588 67.0379C87.4138 67.0379 93.3253 69.2791 93.3253 69.2791C93.8521 69.4659 93.7935 70.1507 93.3253 70.3375C93.3253 70.3375 87.4138 68.0963 78.4588 68.0963C69.5038 68.0963 63.5923 70.3375 63.5923 70.3375C63.0655 70.1507 63.1826 69.4659 63.5923 69.2791Z" stroke="#1C1C1A" stroke-width="0.5"/>
<path d="M61.8364 63.7382C61.8364 63.7382 68.4503 61.248 78.4588 61.248C88.4674 61.248 95.1397 63.7382 95.1397 63.7382C95.6665 63.9873 95.608 64.7344 95.1397 64.9834C95.1397 64.9834 88.4674 62.4931 78.4588 62.4931C68.4503 62.4931 61.8364 64.9834 61.8364 64.9834C61.2511 64.7344 61.3097 63.9873 61.8364 63.7382Z" fill="#E41E25"/>
<path d="M61.8364 63.7382C61.8364 63.7382 68.4503 61.248 78.4588 61.248C88.4674 61.248 95.1397 63.7382 95.1397 63.7382C95.6665 63.9873 95.608 64.7344 95.1397 64.9834C95.1397 64.9834 88.4674 62.4931 78.4588 62.4931C68.4503 62.4931 61.8364 64.9834 61.8364 64.9834C61.2511 64.7344 61.3097 63.9873 61.8364 63.7382Z" stroke="#1C1C1A" stroke-width="0.5"/>
<path d="M80.3317 55.1468C79.7464 57.8861 80.6243 59.6293 82.6728 60.0651C84.7214 60.5009 86.7114 59.6916 87.2967 57.2636L88.2331 57.4503C88.2331 58.6955 88.5844 60.5009 91.0426 61.1235C93.5008 61.746 95.0811 59.6293 95.1982 58.0106C95.3738 56.392 93.6764 56.9523 93.9691 57.8239C94.2617 58.7577 93.2667 60.1896 90.9256 59.1935C93.1497 58.571 91.1011 56.3297 92.2132 54.8978C93.1497 53.7149 94.7885 54.0885 96.1346 55.2714C96.1346 55.2714 94.7885 53.1546 95.842 52.0963C96.837 51.0379 98.1247 52.2208 99.822 51.4737C97.7735 54.3375 98.5929 56.0807 97.9491 58.0729C97.2467 60.0029 96.4858 58.82 95.4908 63.1157C94.847 63.8005 94.3203 63.1157 94.4958 62.5554L94.847 61.1857C93.6179 62.3064 92.6229 62.6176 90.3988 62.1196C88.2332 61.6838 87.5893 59.1935 87.5893 59.1935C87.0626 60.4386 85.6579 61.497 83.0241 61.1857C80.4488 60.8745 79.4538 59.2558 78.4587 57.9484C77.4637 59.2558 76.4687 60.8745 73.8934 61.1857C71.3181 61.497 69.8549 60.4386 69.3867 59.1935C69.3867 59.1935 68.6843 61.6838 66.5187 62.1196C64.2946 62.6176 63.2996 62.3064 62.129 61.1857L62.4216 62.5554C62.6558 63.1157 62.0705 63.8005 61.4267 63.1157C60.4317 58.82 59.6708 60.0029 59.027 58.0729C58.3246 56.0807 59.144 54.3375 57.0955 51.4737C58.7928 52.2208 60.0805 51.0379 61.134 52.0963C62.129 53.1546 60.7829 55.2714 60.7829 55.2714C62.129 54.0885 63.7678 53.7149 64.7043 54.8978C65.8164 56.3297 63.7678 58.571 65.9919 59.1935C63.6508 60.1896 62.7143 58.7577 62.9484 57.8239C63.2411 56.9523 61.6023 56.392 61.7193 58.0106C61.8364 59.6293 63.4167 61.746 65.8749 61.1235C68.3331 60.5009 68.6843 58.6955 68.6843 57.4503L69.6793 57.2636C70.2646 59.6916 72.1961 60.5009 74.2447 60.0651C76.3517 59.6293 77.1711 57.8861 76.5858 55.1468C76.0591 53.2791 74.4202 54.5865 75.1226 55.4581C75.8249 56.3297 75.3567 58.2597 72.3717 58.1974C74.5958 56.5787 71.3767 54.9601 71.962 52.9679C72.4888 51.2869 74.4202 50.9134 76.4102 51.7227C76.4102 51.7227 74.7714 49.9173 75.4152 48.3609C76.1176 46.7422 77.2882 46.7422 78.4587 45.248C79.6293 46.8667 80.7999 46.8667 81.5023 48.4231C82.1461 49.9796 80.5073 51.785 80.5073 51.785C82.4973 50.9757 84.4287 51.3492 84.9555 53.0301C85.5408 55.0846 82.3217 56.641 84.5458 58.2597C81.5608 58.3842 81.0925 56.392 81.7949 55.5204C82.4973 54.6488 80.917 53.3414 80.3317 55.1468Z" fill="#E41E25"/>
<path d="M80.3317 55.1468C79.7464 57.8861 80.6243 59.6293 82.6728 60.0651C84.7214 60.5009 86.7114 59.6916 87.2967 57.2636L88.2331 57.4503C88.2331 58.6955 88.5844 60.5009 91.0426 61.1235C93.5008 61.746 95.0811 59.6293 95.1982 58.0106C95.3738 56.392 93.6764 56.9523 93.9691 57.8239C94.2617 58.7577 93.2667 60.1896 90.9256 59.1935C93.1497 58.571 91.1011 56.3297 92.2132 54.8978C93.1497 53.7149 94.7885 54.0885 96.1346 55.2714C96.1346 55.2714 94.7885 53.1546 95.842 52.0963C96.837 51.0379 98.1247 52.2208 99.822 51.4737C97.7735 54.3375 98.5929 56.0807 97.9491 58.0729C97.2467 60.0029 96.4858 58.82 95.4908 63.1157C94.847 63.8005 94.3203 63.1157 94.4958 62.5554L94.847 61.1857C93.6179 62.3064 92.6229 62.6176 90.3988 62.1196C88.2332 61.6838 87.5893 59.1935 87.5893 59.1935C87.0626 60.4386 85.6579 61.497 83.0241 61.1857C80.4488 60.8745 79.4538 59.2558 78.4587 57.9484C77.4637 59.2558 76.4687 60.8745 73.8934 61.1857C71.3181 61.497 69.8549 60.4386 69.3867 59.1935C69.3867 59.1935 68.6843 61.6838 66.5187 62.1196C64.2946 62.6176 63.2996 62.3064 62.129 61.1857L62.4216 62.5554C62.6558 63.1157 62.0705 63.8005 61.4267 63.1157C60.4317 58.82 59.6708 60.0029 59.027 58.0729C58.3246 56.0807 59.144 54.3375 57.0955 51.4737C58.7928 52.2208 60.0805 51.0379 61.134 52.0963C62.129 53.1546 60.7829 55.2714 60.7829 55.2714C62.129 54.0885 63.7678 53.7149 64.7043 54.8978C65.8164 56.3297 63.7678 58.571 65.9919 59.1935C63.6508 60.1896 62.7143 58.7577 62.9484 57.8239C63.2411 56.9523 61.6023 56.392 61.7193 58.0106C61.8364 59.6293 63.4167 61.746 65.8749 61.1235C68.3331 60.5009 68.6843 58.6955 68.6843 57.4503L69.6793 57.2636C70.2646 59.6916 72.1961 60.5009 74.2447 60.0651C76.3517 59.6293 77.1711 57.8861 76.5858 55.1468C76.0591 53.2791 74.4202 54.5865 75.1226 55.4581C75.8249 56.3297 75.3567 58.2597 72.3717 58.1974C74.5958 56.5787 71.3767 54.9601 71.962 52.9679C72.4888 51.2869 74.4202 50.9134 76.4102 51.7227C76.4102 51.7227 74.7714 49.9173 75.4152 48.3609C76.1176 46.7422 77.2882 46.7422 78.4587 45.248C79.6293 46.8667 80.7999 46.8667 81.5023 48.4231C82.1461 49.9796 80.5073 51.785 80.5073 51.785C82.4973 50.9757 84.4287 51.3492 84.9555 53.0301C85.5408 55.0846 82.3217 56.641 84.5458 58.2597C81.5608 58.3842 81.0925 56.392 81.7949 55.5204C82.4973 54.6488 80.917 53.3414 80.3317 55.1468Z" stroke="#1C1C1A" stroke-width="0.5"/>
<path d="M80.3317 53.4659C80.3317 54.5243 79.4538 55.3336 78.4588 55.3336C77.4053 55.3336 76.5859 54.5243 76.5859 53.4659C76.5859 52.4698 77.4053 51.6605 78.4588 51.6605C79.4538 51.6605 80.3317 52.4698 80.3317 53.4659Z" fill="#FEFEFE"/>
<path d="M80.3317 53.4659C80.3317 54.5243 79.4538 55.3336 78.4588 55.3336C77.4053 55.3336 76.5859 54.5243 76.5859 53.4659C76.5859 52.4698 77.4053 51.6605 78.4588 51.6605C79.4538 51.6605 80.3317 52.4698 80.3317 53.4659Z" stroke="#1C1C1A" stroke-width="0.4" stroke-linecap="round"/>
<path d="M79.5708 53.4659C79.5708 54.0885 79.1026 54.5865 78.4588 54.5865C77.8149 54.5865 77.3467 54.0885 77.3467 53.4659C77.3467 52.8434 77.8149 52.3453 78.4588 52.3453C79.1026 52.3453 79.5708 52.8434 79.5708 53.4659Z" fill="#FEFEFE"/>
<path d="M79.5708 53.4659C79.5708 54.0885 79.1026 54.5865 78.4588 54.5865C77.8149 54.5865 77.3467 54.0885 77.3467 53.4659C77.3467 52.8434 77.8149 52.3453 78.4588 52.3453C79.1026 52.3453 79.5708 52.8434 79.5708 53.4659Z" stroke="#1C1C1A" stroke-width="0.4" stroke-linecap="round"/>
<path d="M76.9371 63.3025H79.9221C80.5073 63.3025 80.9756 63.9251 80.9756 64.6721C80.9756 65.4192 80.5073 66.0418 79.9221 66.0418H76.9371C76.2932 66.0418 75.825 65.4192 75.825 64.6721C75.825 63.9251 76.2932 63.3025 76.9371 63.3025Z" fill="#FEFEFE"/>
<path d="M76.9371 63.3025H79.9221C80.5073 63.3025 80.9756 63.9251 80.9756 64.6721C80.9756 65.4192 80.5073 66.0418 79.9221 66.0418H76.9371C76.2932 66.0418 75.825 65.4192 75.825 64.6721C75.825 63.9251 76.2932 63.3025 76.9371 63.3025Z" stroke="#1C1C1A" stroke-width="0.5" stroke-linecap="round"/>
<path d="M77.2882 63.8005H79.5123C79.922 63.8005 80.3317 64.1741 80.3317 64.6721C80.3317 65.1702 79.922 65.5437 79.5123 65.5437H77.2882C76.8785 65.5437 76.5273 65.1702 76.5273 64.6721C76.5273 64.1741 76.8785 63.8005 77.2882 63.8005Z" fill="#FEFEFE"/>
<path d="M77.2882 63.8005H79.5123C79.922 63.8005 80.3317 64.1741 80.3317 64.6721C80.3317 65.1702 79.922 65.5437 79.5123 65.5437H77.2882C76.8785 65.5437 76.5273 65.1702 76.5273 64.6721C76.5273 64.1741 76.8785 63.8005 77.2882 63.8005Z" stroke="#1C1C1A" stroke-width="0.5" stroke-linecap="round"/>
<path d="M58.9099 55.6449C60.4317 55.3336 61.1926 59.0068 59.6708 59.2558C58.0905 59.5671 57.3296 56.0184 58.9099 55.6449Z" fill="#FEFEFE"/>
<path d="M58.9099 55.6449C60.4317 55.3336 61.1926 59.0068 59.6708 59.2558C58.0905 59.5671 57.3296 56.0184 58.9099 55.6449Z" stroke="#1C1C1A" stroke-width="0.5" stroke-linecap="round"/>
<path d="M59.6122 57.3258C59.4367 56.7655 58.9099 56.392 58.4417 56.5165C57.9734 56.641 57.7393 57.2013 57.8564 57.8239C58.0319 58.4465 58.5587 58.82 59.027 58.6955C59.5537 58.5087 59.7878 57.9484 59.6122 57.3258Z" fill="#FEFEFE"/>
<path d="M59.6122 57.3258C59.4367 56.7655 58.9099 56.392 58.4417 56.5165C57.9734 56.641 57.7393 57.2013 57.8564 57.8239C58.0319 58.4465 58.5587 58.82 59.027 58.6955C59.5537 58.5087 59.7878 57.9484 59.6122 57.3258Z" stroke="#1C1C1A" stroke-width="0.4" stroke-linecap="round"/>
<path d="M70.2647 55.3337C70.2647 56.143 69.6208 56.7656 68.8014 56.7656C68.0406 56.7656 67.3967 56.143 67.3967 55.3337C67.3967 54.5866 68.0406 53.964 68.8014 53.964C69.6208 53.964 70.2647 54.5866 70.2647 55.3337Z" fill="#FEFEFE"/>
<path d="M70.2647 55.3337C70.2647 56.143 69.6208 56.7656 68.8014 56.7656C68.0406 56.7656 67.3967 56.143 67.3967 55.3337C67.3967 54.5866 68.0406 53.964 68.8014 53.964C69.6208 53.964 70.2647 54.5866 70.2647 55.3337Z" stroke="#1C1C1A" stroke-width="0.4" stroke-linecap="round"/>
<path d="M69.855 56.7033L69.9135 56.9523C69.9135 57.0768 69.8549 57.1391 69.7379 57.2014L68.5088 57.3881C68.3917 57.3881 68.2746 57.3259 68.2746 57.2014L68.2161 56.9523C68.2161 56.8278 68.2747 56.7033 68.3917 56.7033L69.6793 56.5165C69.7379 56.5165 69.855 56.5788 69.855 56.7033Z" fill="#FEFEFE"/>
<path d="M69.855 56.7033L69.9135 56.9523C69.9135 57.0768 69.8549 57.1391 69.7379 57.2014L68.5088 57.3881C68.3917 57.3881 68.2746 57.3259 68.2746 57.2014L68.2161 56.9523C68.2161 56.8278 68.2747 56.7033 68.3917 56.7033L69.6793 56.5165C69.7379 56.5165 69.855 56.5788 69.855 56.7033Z" stroke="#1C1C1A" stroke-width="0.5" stroke-linecap="round"/>
<path d="M62.129 66.353L62.7143 66.2285C62.8313 66.1663 63.0069 66.5398 63.124 67.0379C63.2411 67.4737 63.2411 67.9095 63.124 67.9095L62.5387 68.0962C62.4216 68.0962 62.246 67.7227 62.129 67.2869C62.0119 66.7888 62.0119 66.4153 62.129 66.353Z" fill="#FEFEFE"/>
<path d="M62.129 66.353L62.7143 66.2285C62.8313 66.1663 63.0069 66.5398 63.124 67.0379C63.2411 67.4737 63.2411 67.9095 63.124 67.9095L62.5387 68.0962C62.4216 68.0962 62.246 67.7227 62.129 67.2869C62.0119 66.7888 62.0119 66.4153 62.129 66.353Z" stroke="#1C1C1A" stroke-width="0.5" stroke-linecap="round"/>
<path d="M62.4802 65.7304L63.007 65.6059C63.124 65.5437 63.3582 66.1662 63.5338 66.9133C63.7093 67.6604 63.7678 68.283 63.6508 68.283L63.1241 68.4075C63.007 68.4075 62.8314 67.8472 62.6558 67.1001C62.4802 66.353 62.4217 65.7304 62.4802 65.7304Z" fill="#FEFEFE"/>
<path d="M62.4802 65.7304L63.007 65.6059C63.124 65.5437 63.3582 66.1662 63.5338 66.9133C63.7093 67.6604 63.7678 68.283 63.6508 68.283L63.1241 68.4075C63.007 68.4075 62.8314 67.8472 62.6558 67.1001C62.4802 66.353 62.4217 65.7304 62.4802 65.7304Z" stroke="#1C1C1A" stroke-width="0.5" stroke-linecap="round"/>
<path d="M66.4018 66.4153C66.4018 66.7888 66.1091 67.1001 65.6994 67.1001C65.3482 67.1001 64.997 66.7888 64.997 66.4153C64.997 65.9795 65.3482 65.7305 65.6994 65.7305C66.1091 65.7305 66.4018 65.9795 66.4018 66.4153Z" fill="#FEFEFE"/>
<path d="M66.4018 66.4153C66.4018 66.7888 66.1091 67.1001 65.6994 67.1001C65.3482 67.1001 64.997 66.7888 64.997 66.4153C64.997 65.9795 65.3482 65.7305 65.6994 65.7305C66.1091 65.7305 66.4018 65.9795 66.4018 66.4153Z" stroke="#1C1C1A" stroke-width="0.4" stroke-linecap="round"/>
<path d="M70.0306 65.6059C70.0306 65.9795 69.7379 66.2908 69.3282 66.2908C68.9771 66.2908 68.6258 65.9795 68.6258 65.6059C68.6258 65.2324 68.9771 64.9211 69.3282 64.9211C69.7379 64.9211 70.0306 65.2324 70.0306 65.6059Z" fill="#FEFEFE"/>
<path d="M70.0306 65.6059C70.0306 65.9795 69.7379 66.2908 69.3282 66.2908C68.9771 66.2908 68.6258 65.9795 68.6258 65.6059C68.6258 65.2324 68.9771 64.9211 69.3282 64.9211C69.7379 64.9211 70.0306 65.2324 70.0306 65.6059Z" stroke="#1C1C1A" stroke-width="0.4" stroke-linecap="round"/>
<path d="M73.7765 65.0456C73.7765 65.4192 73.4838 65.7305 73.0741 65.7305C72.723 65.7305 72.4303 65.4192 72.4303 65.0456C72.4303 64.6721 72.723 64.3608 73.0741 64.3608C73.4838 64.3608 73.7765 64.6721 73.7765 65.0456Z" fill="#FEFEFE"/>
<path d="M73.7765 65.0456C73.7765 65.4192 73.4838 65.7305 73.0741 65.7305C72.723 65.7305 72.4303 65.4192 72.4303 65.0456C72.4303 64.6721 72.723 64.3608 73.0741 64.3608C73.4838 64.3608 73.7765 64.6721 73.7765 65.0456Z" stroke="#1C1C1A" stroke-width="0.4" stroke-linecap="round"/>
<path d="M98.0076 55.6449C96.4858 55.3336 95.7249 59.0068 97.2467 59.2558C98.827 59.5671 99.6464 56.0184 98.0076 55.6449Z" fill="#FEFEFE"/>
<path d="M98.0076 55.6449C96.4858 55.3336 95.7249 59.0068 97.2467 59.2558C98.827 59.5671 99.6464 56.0184 98.0076 55.6449Z" stroke="#1C1C1A" stroke-width="0.5" stroke-linecap="round"/>
<path d="M97.3052 57.3258C97.4808 56.7655 98.0076 56.392 98.4758 56.5165C98.944 56.641 99.2367 57.2013 99.0611 57.8239C98.8855 58.4465 98.3587 58.82 97.8905 58.6955C97.4223 58.5087 97.1296 57.9484 97.3052 57.3258Z" fill="#FEFEFE"/>
<path d="M97.3052 57.3258C97.4808 56.7655 98.0076 56.392 98.4758 56.5165C98.944 56.641 99.2367 57.2013 99.0611 57.8239C98.8855 58.4465 98.3587 58.82 97.8905 58.6955C97.4223 58.5087 97.1296 57.9484 97.3052 57.3258Z" stroke="#1C1C1A" stroke-width="0.4" stroke-linecap="round"/>
<path d="M86.7114 55.3337C86.7114 56.143 87.3553 56.7656 88.1162 56.7656C88.877 56.7656 89.5209 56.143 89.5209 55.3337C89.5209 54.5866 88.877 53.964 88.1162 53.964C87.3553 53.964 86.7114 54.5866 86.7114 55.3337Z" fill="#FEFEFE"/>
<path d="M86.7114 55.3337C86.7114 56.143 87.3553 56.7656 88.1162 56.7656C88.877 56.7656 89.5209 56.143 89.5209 55.3337C89.5209 54.5866 88.877 53.964 88.1162 53.964C87.3553 53.964 86.7114 54.5866 86.7114 55.3337Z" stroke="#1C1C1A" stroke-width="0.4" stroke-linecap="round"/>
<path d="M87.0626 56.7033L87.0041 56.9523C87.0041 57.0768 87.0626 57.1391 87.1797 57.2014L88.4088 57.3881C88.5259 57.3881 88.6429 57.3259 88.6429 57.2014L88.7014 56.9523C88.7014 56.8278 88.6429 56.7033 88.5258 56.7033L87.2967 56.5165C87.1797 56.5165 87.0626 56.5788 87.0626 56.7033Z" fill="#FEFEFE"/>
<path d="M87.0626 56.7033L87.0041 56.9523C87.0041 57.0768 87.0626 57.1391 87.1797 57.2014L88.4088 57.3881C88.5259 57.3881 88.6429 57.3259 88.6429 57.2014L88.7014 56.9523C88.7014 56.8278 88.6429 56.7033 88.5258 56.7033L87.2967 56.5165C87.1797 56.5165 87.0626 56.5788 87.0626 56.7033Z" stroke="#1C1C1A" stroke-width="0.5" stroke-linecap="round"/>
<path d="M94.7885 66.353L94.2618 66.2285C94.1447 66.1663 93.9691 66.5398 93.7935 67.0379C93.6764 67.4737 93.6764 67.9095 93.7935 67.9095L94.3788 68.0962C94.4958 68.0962 94.6715 67.7227 94.7885 67.2869C94.9056 66.7888 94.9056 66.4153 94.7885 66.353Z" fill="#FEFEFE"/>
<path d="M94.7885 66.353L94.2618 66.2285C94.1447 66.1663 93.9691 66.5398 93.7935 67.0379C93.6764 67.4737 93.6764 67.9095 93.7935 67.9095L94.3788 68.0962C94.4958 68.0962 94.6715 67.7227 94.7885 67.2869C94.9056 66.7888 94.9056 66.4153 94.7885 66.353Z" stroke="#1C1C1A" stroke-width="0.5" stroke-linecap="round"/>
<path d="M94.4374 65.7304L93.9106 65.6059C93.7936 65.5437 93.618 66.1662 93.4424 66.9133C93.2668 67.6604 93.2083 68.283 93.2668 68.283L93.7935 68.4075C93.9106 68.4075 94.1447 67.8472 94.3203 67.1001C94.4959 66.353 94.5545 65.7304 94.4374 65.7304Z" fill="#FEFEFE"/>
<path d="M94.4374 65.7304L93.9106 65.6059C93.7936 65.5437 93.618 66.1662 93.4424 66.9133C93.2668 67.6604 93.2083 68.283 93.2668 68.283L93.7935 68.4075C93.9106 68.4075 94.1447 67.8472 94.3203 67.1001C94.4959 66.353 94.5545 65.7304 94.4374 65.7304Z" stroke="#1C1C1A" stroke-width="0.5" stroke-linecap="round"/>
<path d="M90.5158 66.4153C90.5158 66.7888 90.867 67.1001 91.2182 67.1001C91.6279 67.1001 91.9205 66.7888 91.9205 66.4153C91.9205 65.9795 91.6279 65.7305 91.2182 65.7305C90.867 65.7305 90.5158 65.9795 90.5158 66.4153Z" fill="#FEFEFE"/>
<path d="M90.5158 66.4153C90.5158 66.7888 90.867 67.1001 91.2182 67.1001C91.6279 67.1001 91.9205 66.7888 91.9205 66.4153C91.9205 65.9795 91.6279 65.7305 91.2182 65.7305C90.867 65.7305 90.5158 65.9795 90.5158 66.4153Z" stroke="#1C1C1A" stroke-width="0.4" stroke-linecap="round"/>
<path d="M86.887 65.6059C86.887 65.9795 87.1797 66.2908 87.5894 66.2908C87.9991 66.2908 88.2918 65.9795 88.2918 65.6059C88.2918 65.2324 87.9991 64.9211 87.5894 64.9211C87.1797 64.9211 86.887 65.2324 86.887 65.6059Z" fill="#FEFEFE"/>
<path d="M86.887 65.6059C86.887 65.9795 87.1797 66.2908 87.5894 66.2908C87.9991 66.2908 88.2918 65.9795 88.2918 65.6059C88.2918 65.2324 87.9991 64.9211 87.5894 64.9211C87.1797 64.9211 86.887 65.2324 86.887 65.6059Z" stroke="#1C1C1A" stroke-width="0.4" stroke-linecap="round"/>
<path d="M83.1412 65.0456C83.1412 65.4192 83.4338 65.7305 83.8435 65.7305C84.1947 65.7305 84.5459 65.4192 84.5459 65.0456C84.5459 64.6721 84.1947 64.3608 83.8435 64.3608C83.4338 64.3608 83.1412 64.6721 83.1412 65.0456Z" fill="#FEFEFE"/>
<path d="M83.1412 65.0456C83.1412 65.4192 83.4338 65.7305 83.8435 65.7305C84.1947 65.7305 84.5459 65.4192 84.5459 65.0456C84.5459 64.6721 84.1947 64.3608 83.8435 64.3608C83.4338 64.3608 83.1412 64.6721 83.1412 65.0456Z" stroke="#1C1C1A" stroke-width="0.4" stroke-linecap="round"/>
<path d="M82.6144 191.738C86.77 185.201 74.83 191.738 74.83 191.738C74.83 191.738 78.5173 198.275 82.6144 191.738Z" fill="#FEFEFE"/>
<path d="M82.6144 191.738C86.77 185.201 74.83 191.738 74.83 191.738C74.83 191.738 78.5173 198.275 82.6144 191.738Z" stroke="#1C1C1A" stroke-width="0.7"/>
<path d="M66.8699 141.372C66.8699 141.372 65.2311 142.368 64.3531 144.049C63.4752 145.73 62.0705 152.329 62.5387 154.073C63.0655 155.816 64.6458 155.069 64.6458 155.069C64.6458 155.069 71.2596 170.384 70.6158 173.248C70.0305 176.049 68.7429 184.89 69.5623 187.878C70.3817 190.866 73.0155 191.8 73.8349 191.987C74.7714 192.174 78.5758 190.368 78.5758 190.368C78.5758 190.368 81.912 192.36 83.5508 191.925C85.1311 191.489 86.9455 190.43 87.6478 187.567C88.3502 184.703 86.3602 176.734 85.892 173.995C85.3652 171.131 92.3302 155.193 92.3302 155.193C92.3302 155.193 94.0276 155.006 94.3787 153.699C94.7299 152.392 92.5058 143.863 92.5058 143.863L90.0476 141.248" fill="#FEFEFE"/>
<path d="M66.8699 141.372C66.8699 141.372 65.2311 142.368 64.3531 144.049C63.4752 145.73 62.0705 152.329 62.5387 154.073C63.0655 155.816 64.6458 155.069 64.6458 155.069C64.6458 155.069 71.2596 170.384 70.6158 173.248C70.0305 176.049 68.7429 184.89 69.5623 187.878C70.3817 190.866 73.0155 191.8 73.8349 191.987C74.7714 192.174 78.5758 190.368 78.5758 190.368C78.5758 190.368 81.912 192.36 83.5508 191.925C85.1311 191.489 86.9455 190.43 87.6478 187.567C88.3502 184.703 86.3602 176.734 85.892 173.995C85.3652 171.131 92.3302 155.193 92.3302 155.193C92.3302 155.193 94.0276 155.006 94.3787 153.699C94.7299 152.392 92.5058 143.863 92.5058 143.863L90.0476 141.248" stroke="#1C1C1A" stroke-width="0.7"/>
<path d="M70.8499 137.574C62.9484 135.396 62.4217 129.357 59.3196 127.427C56.159 125.559 50.5402 122.571 48.3746 120.516C46.209 118.462 45.4481 114.477 44.2775 115.038C43.0484 115.66 46.0334 127.738 48.7843 131.349C51.5352 134.897 61.134 141.497 67.104 141.372" fill="#FEFEFE"/>
<path d="M70.8499 137.574C62.9484 135.396 62.4217 129.357 59.3196 127.427C56.159 125.559 50.5402 122.571 48.3746 120.516C46.209 118.462 45.4481 114.477 44.2775 115.038C43.0484 115.66 46.0334 127.738 48.7843 131.349C51.5352 134.897 61.134 141.497 67.104 141.372" stroke="#1C1C1A" stroke-width="0.4"/>
<path d="M44.1605 115.287C45.7408 118.773 49.077 124.999 53.5838 129.855C56.3932 132.843 64.0605 137.948 68.8014 138.073" stroke="#1C1C1A" stroke-width="0.4"/>
<path d="M86.7114 137.45C94.4373 135.271 94.9056 129.232 97.9491 127.365C101.051 125.435 106.553 122.446 108.66 120.392C110.767 118.4 111.469 114.415 112.64 114.975C113.869 115.536 110.943 127.614 108.25 131.287C105.558 134.835 96.1933 141.372 90.3403 141.31" fill="#FEFEFE"/>
<path d="M86.7114 137.45C94.4373 135.271 94.9056 129.232 97.9491 127.365C101.051 125.435 106.553 122.446 108.66 120.392C110.767 118.4 111.469 114.415 112.64 114.975C113.869 115.536 110.943 127.614 108.25 131.287C105.558 134.835 96.1933 141.372 90.3403 141.31" stroke="#1C1C1A" stroke-width="0.4"/>
<path d="M112.757 115.162C111.235 118.649 108.016 124.937 103.568 129.73C100.817 132.719 93.3838 137.824 88.7015 138.01" stroke="#1C1C1A" stroke-width="0.4"/>
<path d="M70.6743 142.182C70.6743 142.182 69.8549 144.672 68.8014 144.672C67.7479 144.734 66.4602 142.866 66.4602 141.372C66.4602 139.94 68.4502 137.699 69.3867 137.263C70.3232 136.89 71.1426 137.575 71.1426 137.575C71.1426 137.575 71.1426 136.143 71.6109 135.769C72.0791 135.396 73.7764 135.831 73.7764 135.831C73.7764 135.831 74.4202 134.337 74.947 134.337C75.4738 134.275 76.2346 135.52 76.2346 135.52C76.2346 135.52 77.0541 134.462 77.5223 134.524C77.932 134.586 78.4588 135.831 78.4588 135.831C78.4588 135.831 79.1611 134.648 79.5709 134.586C80.0391 134.586 80.6829 135.52 80.6829 135.52C80.6829 135.52 81.4438 134.337 81.9705 134.399C82.4973 134.462 83.0826 135.956 83.0826 135.956C83.0826 135.956 84.9556 135.52 85.3653 135.956C85.775 136.329 85.4823 137.45 85.4823 137.45L88.2918 137.014C89.8135 136.765 91.5109 142.368 90.3403 143.427C89.755 144.112 88.1161 141.995 88.1161 141.995C86.1847 147.287 85.0141 142.057 85.0141 142.057C85.6579 147.1 82.6729 142.929 82.6729 142.929C81.7364 147.66 80.2732 142.617 80.2732 142.617C78.5173 148.905 77.1126 142.742 77.1126 142.742C75.064 149.777 73.8934 142.493 73.8934 142.493C72.3132 148.905 70.6743 142.182 70.6743 142.182Z" fill="#FEFEFE"/>
<path d="M70.6743 142.182C70.6743 142.182 69.8549 144.672 68.8014 144.672C67.7479 144.734 66.4602 142.866 66.4602 141.372C66.4602 139.94 68.4502 137.699 69.3867 137.263C70.3232 136.89 71.1426 137.575 71.1426 137.575C71.1426 137.575 71.1426 136.143 71.6109 135.769C72.0791 135.396 73.7764 135.831 73.7764 135.831C73.7764 135.831 74.4202 134.337 74.947 134.337C75.4738 134.275 76.2346 135.52 76.2346 135.52C76.2346 135.52 77.0541 134.462 77.5223 134.524C77.932 134.586 78.4588 135.831 78.4588 135.831C78.4588 135.831 79.1611 134.648 79.5709 134.586C80.0391 134.586 80.6829 135.52 80.6829 135.52C80.6829 135.52 81.4438 134.337 81.9705 134.399C82.4973 134.462 83.0826 135.956 83.0826 135.956C83.0826 135.956 84.9556 135.52 85.3653 135.956C85.775 136.329 85.4823 137.45 85.4823 137.45L88.2918 137.014C89.8135 136.765 91.5109 142.368 90.3403 143.427C89.755 144.112 88.1161 141.995 88.1161 141.995C86.1847 147.287 85.0141 142.057 85.0141 142.057C85.6579 147.1 82.6729 142.929 82.6729 142.929C81.7364 147.66 80.2732 142.617 80.2732 142.617C78.5173 148.905 77.1126 142.742 77.1126 142.742C75.064 149.777 73.8934 142.493 73.8934 142.493C72.3132 148.905 70.6743 142.182 70.6743 142.182Z" stroke="#1C1C1A" stroke-width="0.7"/>
<path d="M64.2361 148.034C64.2361 148.034 66.6944 149.217 66.8114 151.333L64.2361 148.034Z" fill="#FEFEFE"/>
<path d="M64.2361 148.034C64.2361 148.034 66.6944 149.217 66.8114 151.333" stroke="#1C1C1A" stroke-width="0.7"/>
<path d="M69.1526 152.143C78.4588 166.462 75.0641 183.395 72.6644 185.076" stroke="#1C1C1A" stroke-width="0.7"/>
<path d="M92.1547 151.022C91.1012 153.823 86.4773 153.325 86.4773 153.325C84.6629 154.259 78.2832 175.364 84.8385 185.388" stroke="#1C1C1A" stroke-width="0.7"/>
<path d="M76.3518 189.372C75.708 190.119 74.2447 189.932 73.0156 188.874C71.845 187.816 71.3768 186.321 72.0206 185.512C72.6644 184.703 74.1277 184.89 75.2982 185.948C76.5274 187.006 76.9371 188.563 76.3518 189.372Z" fill="#FEFEFE"/>
<path d="M76.3518 189.372C75.708 190.119 74.2447 189.932 73.0156 188.874C71.845 187.816 71.3768 186.321 72.0206 185.512C72.6644 184.703 74.1277 184.89 75.2982 185.948C76.5274 187.006 76.9371 188.563 76.3518 189.372Z" stroke="#1C1C1A" stroke-width="0.7" stroke-linecap="round" stroke-linejoin="round"/>
<path d="M76.6444 189.123C76.6444 189.123 77.4052 190.181 78.5758 190.181C79.8049 190.181 80.7414 189.061 80.7414 189.061" fill="#FEFEFE"/>
<path d="M76.6444 189.123C76.6444 189.123 77.4052 190.181 78.5758 190.181C79.8049 190.181 80.7414 189.061 80.7414 189.061" stroke="#1C1C1A" stroke-width="0.7"/>
<path d="M65.8749 153.761C65.8749 153.761 71.7865 155.442 70.1476 162.664C70.1476 162.664 67.865 161.357 66.6944 159.427C65.5238 157.559 65.8749 153.761 65.8749 153.761Z" fill="#FEFEFE"/>
<path d="M65.8749 153.761C65.8749 153.761 71.7865 155.442 70.1476 162.664C70.1476 162.664 67.865 161.357 66.6944 159.427C65.5238 157.559 65.8749 153.761 65.8749 153.761Z" stroke="#1C1C1A" stroke-width="0.4"/>
<path d="M68.8014 157.995C68.8014 159.427 68.4502 160.609 67.982 160.609C67.5723 160.609 67.2212 159.427 67.2212 157.995C67.2212 156.625 67.5723 155.442 67.982 155.442C68.4502 155.442 68.8014 156.625 68.8014 157.995Z" fill="#13120F"/>
<path d="M68.8014 157.995C68.8014 159.427 68.4502 160.609 67.982 160.609C67.5723 160.609 67.2212 159.427 67.2212 157.995C67.2212 156.625 67.5723 155.442 67.982 155.442C68.4502 155.442 68.8014 156.625 68.8014 157.995Z" stroke="#1C1C1A" stroke-width="0.4" stroke-linecap="round" stroke-linejoin="round"/>
<path d="M91.1011 153.699C91.1011 153.699 85.1897 155.38 86.8285 162.539C86.8285 162.539 89.1111 161.294 90.2817 159.364C91.4523 157.434 91.1011 153.699 91.1011 153.699Z" fill="#FEFEFE"/>
<path d="M91.1011 153.699C91.1011 153.699 85.1897 155.38 86.8285 162.539C86.8285 162.539 89.1111 161.294 90.2817 159.364C91.4523 157.434 91.1011 153.699 91.1011 153.699Z" stroke="#1C1C1A" stroke-width="0.4"/>
<path d="M88.1747 157.932C88.1747 159.364 88.5259 160.485 88.9941 160.485C89.4038 160.485 89.755 159.364 89.755 157.932C89.755 156.501 89.4038 155.38 88.9941 155.38C88.5259 155.38 88.1747 156.501 88.1747 157.932Z" fill="#13120F"/>
<path d="M88.1747 157.932C88.1747 159.364 88.5259 160.485 88.9941 160.485C89.4038 160.485 89.755 159.364 89.755 157.932C89.755 156.501 89.4038 155.38 88.9941 155.38C88.5259 155.38 88.1747 156.501 88.1747 157.932Z" stroke="#1C1C1A" stroke-width="0.4" stroke-linecap="round" stroke-linejoin="round"/>
<path d="M81.0342 189.497C81.678 190.306 83.1412 190.057 84.3118 188.998C85.5409 187.94 85.9507 186.446 85.3654 185.637C84.7215 184.827 83.2583 185.076 82.0291 186.135C80.8585 187.193 80.3903 188.687 81.0342 189.497Z" fill="#FEFEFE"/>
<path d="M81.0342 189.497C81.678 190.306 83.1412 190.057 84.3118 188.998C85.5409 187.94 85.9507 186.446 85.3654 185.637C84.7215 184.827 83.2583 185.076 82.0291 186.135C80.8585 187.193 80.3903 188.687 81.0342 189.497Z" stroke="#1C1C1A" stroke-width="0.7" stroke-linecap="round" stroke-linejoin="round"/>
</g>
<defs>
<linearGradient id="paint0_linear_1_7364" x1="37.6922" y1="198.48" x2="37.6922" y2="113.263" gradientUnits="userSpaceOnUse">
<stop stop-color="#D02527"/>
<stop offset="1" stop-color="#C02026"/>
</linearGradient>
</defs>
</svg>
