<?xml version="1.0" encoding="utf-8"?>
<svg viewBox="1535.8776 482.8549 78.5029 78.5502" xmlns="http://www.w3.org/2000/svg">
  <g id="&lt;Group&gt;" transform="matrix(1, 0, 0, 1, -985.4224243164062, -526.89501953125)">
    <path id="&lt;Compound Path&gt;" fill-rule="evenodd" class="s37" d="m2528.6 1067.1c0-7.6 6.2-13.9 13.8-13.9 7.7 0 13.9 6.3 13.9 13.9 0 7.7-6.2 13.9-13.9 13.9-7.6 0-13.8-6.2-13.8-13.9zm3.8 0c0 5.5 4.5 10.1 10 10.1 5.6 0 10.1-4.6 10.1-10.1 0-0.7-0.6-1.3-1.4-1.3-0.7 0-1.3 0.6-1.3 1.3 0 4.1-3.3 7.4-7.4 7.4-4.1 0-7.4-3.3-7.4-7.4 0-4.1 3.3-7.4 7.4-7.4 0.7 0 1.3-0.6 1.3-1.3 0-0.7-0.6-1.3-1.3-1.3-5.5 0-10 4.5-10 10zm10-1.9c-1 0-1.9 0.9-1.9 1.9 0 1.1 0.9 1.9 1.9 1.9 1.1 0 1.9-0.8 1.9-1.9 0-1-0.8-1.9-1.9-1.9z" style="fill: rgb(33, 30, 31);"/>
    <path id="&lt;Compound Path&gt;" fill-rule="evenodd" class="s37" d="m2521.3 1067.1c0-5.7 2.2-10.8 5.9-14.6l0.6-0.6c3.8-3.7 8.9-5.9 14.6-5.9 6.2 0 11.7 2.6 15.6 6.9q0 0 0 0 0 0 0 0c3.4 3.7 5.6 8.7 5.6 14.2 0 5.5-2.2 10.5-5.6 14.3l-1.3 1.3c-3.8 3.4-8.8 5.6-14.3 5.6-11.6 0-21.1-9.5-21.1-21.2zm4.6 0c0 9.1 7.4 16.5 16.5 16.5 9.1 0 16.5-7.4 16.5-16.5 0-9.1-7.4-16.5-16.5-16.5-9.1 0-16.5 7.4-16.5 16.5z" style="fill: rgb(33, 30, 31);"/>
    <path id="&lt;Path&gt;" class="s37" d="m2583.9 1045.7c-0.4 0-0.7-0.1-1-0.4-0.5-0.5-0.5-1.3 0-1.8l16.5-16.6c-0.7-4-2.7-7.9-5.8-11-8.2-8.2-21.6-8.2-29.9 0l-28.5 28.5c2.3-0.7 4.7-1.1 7.2-1.1 2.2 0 4.4 0.3 6.4 0.9l17.8-17.7c0.5-0.6 1.3-0.6 1.9 0 0.5 0.5 0.5 1.3 0 1.8l-16.9 16.9c2.8 1.1 5.2 2.8 7.4 4.8l28-28.1c0.6-0.5 1.4-0.5 1.9 0 0.5 0.6 0.5 1.4 0 1.9l-28.1 28.2c3.4 4.1 5.4 9.4 5.4 15.1 0 2.5-0.4 4.9-1.1 7.2l28.5-28.5c4.3-4.2 6.3-9.9 6.2-15.5l-15 15c-0.3 0.3-0.6 0.4-0.9 0.4z" style="fill: rgb(33, 30, 31);"/>
  </g>
</svg>