<?xml version="1.0" encoding="utf-8"?>
<svg viewBox="1251.1957 470.3049 61.0916 87.1425" xmlns="http://www.w3.org/2000/svg">
  <g id="&lt;Group&gt;" transform="matrix(1, 0, 0, 1, -985.4224243164062, -526.89501953125)">
    <path id="&lt;Path&gt;" class="s37" d="m2296 1061.5c-2.8 8.8-7.5 15.1-13.7 18.6q1.2-2.1 1.9-4.5c2.5-7.9-0.1-13.6-1.8-16.8-1 0.6-1.9 2.8-3.6 4.2-1.7 1.4-2.9-1.8-2.9-9.6 0-7.7-5.4-13.5-8.7-16.6 0 0-1.8 3.6-1.5 6.4 0.4 2.8 0.4 5.7-3.1 9.2-3.4 3.6-4.7 6.2-3.7 13.5-2.6-2.1-4.6-9-4.6-9 0 0-0.3-0.5-2.8 4.7-1.9 3.9-2.3 10.9 0.8 16.8-17.3-9.8-17.9-31.4-13.1-41.2 4.3-9.1 4.9-8.2 4.9-8.2 0 0 3.4 12 7.9 15.7-1.8-12.6 0.5-17.2 6.4-23.4 9.3-9.5 8.8-18.6 8.3-24.1 7 2.6 15.4 12.8 14.7 25.9-0.6 13.4 2.1 19 5.1 16.5 3-2.4 4.6-6.2 6.3-7.3 2.9 5.7 7.4 15.5 3.2 29.2z" style="fill: rgb(33, 30, 31);"/>
    <path id="&lt;Path&gt;" class="s37" d="m2265.8 1057.2c0.6 2.1 0.4 4.1-2.3 7.5-2.7 3.5-2 4.8-1.9 6.2-1.2-0.2-1.6-1.4-2-3.4-1.5 3.1-2.9 9.6 1.3 14 4.2 4.5 10.7 3.3 14.2-1.1 3.4-4.3 1.7-9.6 0.9-11-1.5 0.9-1.8 1.7-2.5 0.8-0.6-0.8 3.9-9.5-7.7-13z" style="fill: rgb(33, 30, 31);"/>
  </g>
</svg>