<?xml version="1.0" encoding="utf-8"?>
<svg viewBox="1384.0776 467.3048 92.3 93.6002" xmlns="http://www.w3.org/2000/svg">
  <g id="&lt;Group&gt;" transform="matrix(1, 0, 0, 1, -985.4224243164062, -526.89501953125)">
    <path id="&lt;Path&gt;" class="s37" d="m2422.5 1060.7c12.4-10.6 24-24.5 29.7-31.7 1.9 0.6 4.5-0.6 6.2-3 0.7-0.9 1.2-1.9 1.4-2.9 0.9-2.8-0.2-7-0.2-7 0 0-0.1 0.1-0.2 0.4-0.2 0.3-0.3 0.8-1.2 0.8-2.3 0.2-3.9 1.1-3.9 1.1-1.1 0.6-2.1 1.4-2.9 2.6-1.7 2.3-2 5.1-0.9 6.7-5.8 5.8-16.8 16.1-30.7 24.1 0.1-2.6 0.4-5.6 0.8-7.9 2.4-9.8 10.7-19 13.1-21.5q0.1 0.1 0.2 0.1c2.3 1.6 6.2 0.1 8.5-3.4 0.7-1.1 1.2-2.3 1.5-3.5 0.9-3.4-0.5-8.3-0.5-8.3 0 0-0.2 0.1-0.3 0.4-0.1 0.4-0.3 1-1.4 1.1-2.7 0.2-4.6 1.4-4.6 1.4-1.2 0.7-2.4 1.8-3.3 3.2-2 2.9-2.2 6.3-0.8 8.2-2.4 1.7-9 6.6-14 12.5 0.2-8.9 0.9-17.8 1.6-24.3 1.7 0.1 5.6-1.3 7.2-4.5 0.7-1.4 1-3 1-4.3 0 0 0.1-2.2-1-4.7-0.4-0.9 0-1.4 0.2-1.7 0.2-0.2 0.2-0.4 0.2-0.4 0 0-4.8 1.2-7.3 3.6-0.8 0.8-1.6 1.8-2.2 3.1-1.4 2.9-1.3 5.9 0 7.7-1.4 5.6-3.1 13.7-4.5 23.8-6.3-9.4-12.2-15.6-15.8-18.8 0.2-1.7-0.8-3.8-2.8-5.2-0.8-0.6-1.7-1-2.6-1.2v-0.1c-2.5-0.8-6.2 0.1-6.2 0.1 0 0 0.1 0.2 0.3 0.3 0.3 0.1 0.7 0.3 0.7 1.1 0.1 2 1 3.5 1 3.5 0.5 0.9 1.2 1.8 2.2 2.6 2.4 1.7 5.3 1.9 6.7 0.5 4 5 10.6 14.4 12.9 23.8 1.1 3.7 1.4 6.9 1.7 9.3q-0.1 1.4-0.2 2.8-0.2 2.4-0.4 4.7c-13.6-12.2-21.7-18.4-26.3-21.6 0-2.1-1.7-4.6-4.5-6.1-1.1-0.6-2.3-1-3.5-1.1-3.3-0.6-7.9 1.2-7.9 1.2 0 0 0.1 0.2 0.4 0.3 0.4 0.1 1 0.2 1.2 1.2 0.5 2.6 1.8 4.3 1.8 4.3 0.8 1.1 1.9 2.1 3.3 2.9 3.1 1.7 6.5 1.5 8.2-0.2 6.7 5.5 18.2 16.5 25.4 32.3-2.6 12.7-6 16.4-7.7 18.8h29.9c-3.8-4.1-8.4-8.8-11.1-25.3 0.4-0.7 1-1.3 1.6-1.8z" style="fill: rgb(33, 30, 31);"/>
    <path id="&lt;Path&gt;" class="s37" d="m2396.9 998.1c-0.6 2-0.2 3.7-0.2 3.7 0.1 1 0.5 2.2 1.2 3.2 1.8 2.6 5.6 3.1 6.5 2.5 1.8-1.2 1.8-4.3 0-6.9-0.6-0.9-1.3-1.6-2.1-2.1-2.1-1.6-5.9-2-5.9-2 0 0 0 0.2 0.2 0.3 0.2 0.3 0.6 0.6 0.3 1.3z" style="fill: rgb(33, 30, 31);"/>
    <path id="&lt;Path&gt;" class="s37" d="m2392.5 1048.3c-1.3-0.6-2.7-0.9-4-0.9-3.9-0.3-8.8 2.3-8.8 2.3 0 0 0.1 0.1 0.5 0.2 0.4 0.1 1.1 0.2 1.4 1.3 0.9 2.8 2.6 4.6 2.6 4.6 1 1.1 2.4 2.2 4 2.9 4.2 1.7 9.8 0.7 11.1-1 1.2-1.4-2.6-7.7-6.8-9.4z" style="fill: rgb(33, 30, 31);"/>
    <path id="&lt;Path&gt;" class="s37" d="m2395.9 1037.9c0.9 3.1 3.4 5 5.5 4.4 2.1-0.7 3.1-3.7 2.1-6.7-0.4-1.3-1-2.3-1.7-3.1 0 0-1.2-1.3-3.1-2.1-0.8-0.3-0.8-0.8-0.8-1.1-0.1-0.3-0.2-0.4-0.2-0.4 0 0-2.1 3.3-2.2 6 0 1 0.1 2 0.4 3z" style="fill: rgb(33, 30, 31);"/>
    <path id="&lt;Path&gt;" class="s37" d="m2410 1013.9c2.1 0.2 4-2 4.4-5 0.1-1.2 0-2.3-0.4-3.3 0 0-0.4-1.5-1.8-3-0.5-0.5-0.4-0.9-0.3-1.2 0.1-0.2 0.1-0.4 0.1-0.4 0 0-3.1 2.1-4.2 4.4-0.4 0.7-0.7 1.6-0.8 2.6-0.4 3 1 5.6 3 5.9z" style="fill: rgb(33, 30, 31);"/>
    <path id="&lt;Path&gt;" class="s37" d="m2453.6 1035.2c-1.2 0.1-2.5 0.4-3.8 1-3.8 1.8-5.9 5.4-4.6 8 1.2 2.6 5.3 3.2 9.1 1.4 1.5-0.7 2.8-1.7 3.6-2.8 0 0 1.5-1.7 2.2-4.4 0.2-1 0.8-1.2 1.2-1.3 0.4 0 0.5-0.2 0.5-0.2 0 0-4.7-2.1-8.2-1.7z" style="fill: rgb(33, 30, 31);"/>
    <path id="&lt;Path&gt;" class="s37" d="m2438.4 1050.8c-1 0.1-2 0.3-2.9 0.8-3 1.5-4.6 4.3-3.6 6.3 1 2.1 4.3 2.5 7.2 1 1.2-0.5 2.1-1.4 2.8-2.3 0 0 1.1-1.3 1.6-3.4 0.2-0.8 0.7-0.9 1-1 0.2-0.1 0.4-0.2 0.4-0.2 0 0-3.8-1.6-6.5-1.2z" style="fill: rgb(33, 30, 31);"/>
    <path id="&lt;Path&gt;" class="s37" d="m2444.8 1023.2c0.2-0.1 0.2-0.2 0.2-0.2 0 0-3.2 0-5.1 1.1-0.6 0.4-1.3 0.9-1.8 1.6-1.7 1.9-2 4.5-0.6 5.6 1.3 1.2 3.8 0.5 5.5-1.5 0.7-0.8 1.1-1.6 1.3-2.5 0 0 0.4-1.3 0.1-3-0.1-0.7 0.2-0.9 0.4-1.1z" style="fill: rgb(33, 30, 31);"/>
    <path id="&lt;Path&gt;" class="s37" d="m2427.9 1043.8c1.1 0.3 3.7-0.9 4.6-3.4 0.2-0.8 0.3-1.7 0.3-2.4 0-2.2-1.7-4.9-1.7-4.9 0 0-0.1 0.1-0.1 0.3 0 0.2-0.1 0.6-0.7 0.8-1.6 0.7-2.5 1.7-2.5 1.7-0.6 0.6-1.2 1.5-1.5 2.5-0.8 2.4 0.7 5.2 1.6 5.4z" style="fill: rgb(33, 30, 31);"/>
    <path id="&lt;Path&gt;" class="s37" d="m2421.8 1017.4c-1.1 2.4-0.6 4.9 1.1 5.6 1.6 0.8 3.8-0.6 4.8-3 0.4-0.8 0.5-1.6 0.6-2.3 0.2-2.2-1.2-5.1-1.2-5.1 0 0-0.1 0.1-0.2 0.3 0 0.3-0.1 0.6-0.7 0.8-1.7 0.5-2.7 1.4-2.7 1.4-0.7 0.6-1.3 1.4-1.7 2.3z" style="fill: rgb(33, 30, 31);"/>
    <path id="&lt;Path&gt;" class="s37" d="m2383.4 1026c1.5 3.6 4.7 5.7 7.1 4.7 2.5-1.1 3.3-4.8 1.8-8.4-0.5-1.1-1.2-2.1-2-2.9-2.1-2.5-6.7-4-6.7-4 0 0 0.1 0.2 0.2 0.5 0.2 0.3 0.6 0.8 0.1 1.6-1.2 2.3-1.2 4.3-1.2 4.3-0.1 1.3 0.1 2.8 0.7 4.2z" style="fill: rgb(33, 30, 31);"/>
  </g>
</svg>