<svg width="270" height="90" viewBox="0 0 270 90" fill="none" xmlns="http://www.w3.org/2000/svg">
<path d="M20.6924 10.4195L17.0223 12.8743L16.8079 12.5362C17.6414 11.784 18.1426 10.9149 18.3114 9.92903C18.4892 8.94513 18.3479 8.09032 17.8877 7.36458C17.532 6.80379 17.0984 6.45435 16.5868 6.31624C16.0842 6.18015 15.6377 6.23589 15.2473 6.48346C14.9999 6.64036 14.8166 6.83756 14.6974 7.07506C14.5401 7.39838 14.4466 7.81618 14.4169 8.32844C14.3993 8.70191 14.456 9.50242 14.5869 10.73C14.7735 12.4464 14.7257 13.7142 14.4433 14.5331C14.1574 15.3466 13.6461 15.9869 12.9094 16.4542C11.9747 17.0469 10.9374 17.1921 9.7974 16.8898C8.66639 16.5894 7.74523 15.8785 7.03391 14.7569C6.81076 14.405 6.63554 14.0497 6.50827 13.691C6.38099 13.3323 6.26638 12.8538 6.16444 12.2554C6.10703 11.9218 6.02428 11.6698 5.91619 11.4993C5.82553 11.3564 5.67466 11.24 5.46359 11.1503C5.25251 11.0606 5.00288 11.0378 4.7147 11.0818L4.52118 10.7766L8.74362 8.09876L8.93713 8.4039C7.903 9.39896 7.29047 10.4389 7.09956 11.5236C6.91763 12.6104 7.07946 13.5523 7.58505 14.3495C7.97557 14.9653 8.45359 15.3483 9.0191 15.4985C9.58809 15.6541 10.0953 15.5907 10.5406 15.3083C10.8045 15.1409 11.0148 14.9073 11.1716 14.6075C11.3318 14.3131 11.4312 13.9533 11.4698 13.5279C11.5139 13.099 11.4845 12.4084 11.3816 11.456C11.2369 10.1216 11.1992 9.12017 11.2687 8.45167C11.3381 7.78318 11.5133 7.19025 11.7942 6.67288C12.0786 6.16101 12.482 5.73945 13.0043 5.4082C13.8949 4.84333 14.8611 4.68928 15.9028 4.94604C16.9445 5.2028 17.7809 5.82874 18.412 6.82387C18.6422 7.18674 18.8213 7.5665 18.9496 7.96316C19.0475 8.26341 19.1225 8.65525 19.1747 9.13868C19.2359 9.62412 19.3135 9.94106 19.4077 10.0895C19.4983 10.2324 19.6138 10.3173 19.7541 10.3439C19.8943 10.3706 20.1548 10.3134 20.5355 10.1721L20.6924 10.4195Z" fill="black"/>
<path d="M21.858 28.2L18.8818 24.5912L17.5332 24.982C17.0857 25.1147 16.754 25.2702 16.538 25.4483C16.2517 25.6844 16.136 25.9739 16.1909 26.3168C16.2224 26.5187 16.4376 26.9024 16.8365 27.4679L16.5578 27.6978L13.7555 24.3L14.0343 24.0701C14.3919 24.3912 14.7911 24.5683 15.2319 24.6014C15.6777 24.6303 16.4328 24.497 17.4971 24.2016L28.6624 21.1326L28.7805 21.2758L23.441 31.8692C22.9374 32.8753 22.6758 33.5762 22.6563 33.9721C22.6414 34.2713 22.7499 34.5869 22.9816 34.919L22.7028 35.1489L18.6268 30.2066L18.9056 29.9767L19.0733 30.1802C19.4006 30.5769 19.6857 30.8101 19.9288 30.8797C20.1003 30.924 20.2613 30.8839 20.412 30.7597C20.5024 30.6851 20.5829 30.5934 20.6535 30.4846C20.6904 30.4372 20.8166 30.2066 21.0322 29.7925L21.858 28.2ZM22.2043 27.4841L24.4676 23.0606L19.6568 24.3951L22.2043 27.4841Z" fill="black"/>
<path d="M36.865 42.7139L45.378 38.6318L49.3835 42.2394L49.1417 42.5079L48.8224 42.2203C48.5322 41.9589 48.2542 41.8006 47.9886 41.7453C47.8067 41.7041 47.6075 41.7306 47.3912 41.8249C47.2334 41.8931 46.9345 42.1715 46.4944 42.6601L40.6516 49.1472C40.1985 49.6503 39.9419 49.9887 39.8818 50.1624C39.8218 50.3361 39.8304 50.5454 39.9077 50.7903C39.9894 51.0304 40.1681 51.2746 40.4439 51.5229L40.7632 51.8105L40.5214 52.079L35.3839 47.4518L35.6257 47.1833L35.945 47.4709C36.2352 47.7323 36.5132 47.8907 36.7788 47.9459C36.9608 47.9871 37.1621 47.9582 37.3828 47.859C37.5406 47.7909 37.8417 47.5101 38.2861 47.0166L44.8543 39.724L32.9965 45.3016L32.8224 45.1448L37.0167 32.7832L30.7753 39.713C30.3396 40.1968 30.0837 40.5052 30.0077 40.6382C29.8527 40.9368 29.8095 41.2571 29.8781 41.5992C29.9559 41.9409 30.2197 42.3144 30.6696 42.7196L30.4278 42.988L27.0609 39.9556L27.3027 39.6871L27.4043 39.7786C27.6176 39.9795 27.8513 40.1286 28.1053 40.226C28.3637 40.3185 28.5979 40.3454 28.8079 40.3068C29.018 40.2682 29.252 40.1591 29.51 39.9797C29.5676 39.9352 29.7946 39.6928 30.1911 39.2526L35.7986 33.0267C36.2474 32.5284 36.4996 32.1949 36.5553 32.026C36.6154 31.8523 36.6046 31.6454 36.5229 31.4054C36.4455 31.1605 36.269 30.9138 35.9933 30.6655L35.6812 30.3845L35.9231 30.116L39.9431 33.7367L36.865 42.7139Z" fill="black"/>
<path d="M56.6365 48.1578L53.6438 52.6414L53.8631 52.7878C54.5616 53.254 55.2143 53.3727 55.8211 53.1437C56.428 52.9147 57.0602 52.4014 57.7179 51.6036L58.0266 51.8097L54.1773 57.5766L53.8686 57.3706C54.2229 56.6991 54.4282 56.0925 54.4845 55.5508C54.5462 55.0128 54.4841 54.5839 54.2983 54.2642C54.1161 53.939 53.7624 53.6012 53.2372 53.2506L51.1661 56.3534C50.7613 56.9598 50.5381 57.347 50.4965 57.5149C50.4603 57.6864 50.4836 57.8625 50.5666 58.0431C50.6496 58.2237 50.8481 58.4189 51.1621 58.6285L51.8201 59.0676C52.8489 59.7544 53.831 60.0655 54.7664 60.001C55.7072 59.9402 56.6382 59.5127 57.5596 58.7188L57.8601 58.9194L55.0279 62.0894L45.5084 55.7353L45.709 55.4348L46.0745 55.6788C46.394 55.892 46.6892 56.0069 46.96 56.0233C47.1514 56.0414 47.3464 55.9838 47.5451 55.8503C47.6915 55.7601 47.9489 55.4388 48.3176 54.8865L53.1536 47.6412C53.4862 47.1431 53.6768 46.8281 53.7257 46.6963C53.798 46.4706 53.7954 46.2576 53.7179 46.0571C53.6133 45.7681 53.3824 45.5044 53.025 45.2658L52.6595 45.0218L52.8601 44.7213L62.079 50.8748L59.905 54.1319L59.5963 53.9259C59.9706 53.0251 60.1299 52.3056 60.0742 51.7675C60.024 51.233 59.7932 50.711 59.3817 50.2016C59.1436 49.9017 58.6075 49.4734 57.7736 48.9168L56.6365 48.1578Z" fill="black"/>
<path d="M70.6323 70.6679L70.7697 70.3337L71.1762 70.5009C71.5314 70.647 71.8247 70.7042 72.0559 70.6726C72.2956 70.6374 72.5003 70.542 72.6698 70.3865C72.776 70.2823 72.9591 69.9141 73.2191 69.2819L76.5319 61.2255C76.7894 60.5993 76.9173 60.1943 76.9154 60.0105C76.9135 59.8268 76.8338 59.6356 76.6761 59.437C76.5269 59.2348 76.2807 59.0632 75.9375 58.9221L75.5311 58.755L75.6685 58.4208L81.1508 60.6752C82.614 61.2768 83.7094 61.9596 84.4371 62.7234C85.3264 63.6593 85.848 64.7361 86.0019 65.9539C86.1619 67.1741 85.9856 68.4074 85.473 69.6538C85.119 70.5148 84.6536 71.2527 84.0771 71.8673C83.503 72.476 82.8983 72.9278 82.2632 73.2227C81.6305 73.5116 80.9657 73.6817 80.2689 73.7331C79.5805 73.7808 78.7886 73.7122 77.8933 73.527C77.4963 73.4482 76.9034 73.2467 76.1146 72.9223L70.6323 70.6679ZM80.052 61.0364L76.1226 70.592C75.9146 71.0978 75.8112 71.4178 75.8123 71.552C75.8134 71.6862 75.8588 71.807 75.9484 71.9142C76.0739 72.0714 76.2901 72.2131 76.5972 72.3394C77.6027 72.7529 78.5116 72.7253 79.3237 72.2568C80.4276 71.6267 81.3806 70.3362 82.1828 68.3853C82.8291 66.8138 83.0984 65.4568 82.9909 64.3145C82.9016 63.4189 82.6044 62.7124 82.0992 62.195C81.7424 61.83 81.06 61.4438 80.052 61.0364Z" fill="black"/>
<path d="M100.094 66.8977C102.156 67.3485 103.661 68.3716 104.608 69.967C105.561 71.564 105.792 73.3145 105.301 75.2184C104.882 76.845 104.037 78.1534 102.767 79.1437C101.084 80.4579 99.0914 80.8184 96.7903 80.2253C94.4829 79.6307 92.9002 78.3891 92.0423 76.5006C91.3647 75.0082 91.2444 73.4141 91.6815 71.7182C92.1722 69.8143 93.227 68.3953 94.846 67.4612C96.4729 66.5224 98.2223 66.3346 100.094 66.8977ZM100.052 67.5322C98.879 67.2299 97.8326 67.5989 96.9123 68.6392C96.1608 69.4943 95.5478 70.8423 95.0734 72.6832C94.5095 74.8708 94.4773 76.587 94.9768 77.8318C95.3241 78.7012 95.9801 79.2602 96.9447 79.5088C97.5941 79.6761 98.1769 79.6583 98.6931 79.4552C99.3519 79.1947 99.9495 78.6629 100.486 77.8599C101.024 77.0506 101.476 75.9336 101.844 74.5088C102.281 72.8129 102.45 71.5051 102.351 70.5854C102.253 69.6593 102.003 68.9596 101.601 68.4861C101.205 68.0142 100.688 67.6963 100.052 67.5322Z" fill="black"/>
<path d="M119.613 76.9417C120.826 77.3803 121.66 77.8362 122.116 78.3096C122.77 78.9836 123.042 79.7893 122.931 80.7268C122.814 81.716 122.32 82.4869 121.448 83.0394C120.379 83.7062 118.914 83.9295 117.052 83.7093L110.37 82.9191L110.412 82.5603C111.02 82.6322 111.437 82.6258 111.664 82.5411C111.897 82.4507 112.067 82.32 112.172 82.1489C112.284 81.9786 112.382 81.5378 112.466 80.8266L113.476 72.2923C113.56 71.5811 113.567 71.1297 113.498 70.938C113.436 70.7405 113.302 70.5738 113.095 70.4379C112.888 70.302 112.484 70.1985 111.883 70.1274L111.925 69.7686L118.229 70.5141C119.735 70.6922 120.786 70.9541 121.381 71.2999C121.977 71.6391 122.424 72.0984 122.723 72.6779C123.022 73.2509 123.136 73.838 123.065 74.4393C122.99 75.0729 122.694 75.6115 122.176 76.055C121.659 76.4921 120.804 76.7877 119.613 76.9417ZM116.113 76.2624C117.032 76.371 117.719 76.3475 118.177 76.1918C118.641 76.0369 119.012 75.7857 119.289 75.4382C119.566 75.0908 119.739 74.6261 119.808 74.0442C119.877 73.4623 119.816 72.9734 119.627 72.5773C119.445 72.1756 119.152 71.8525 118.749 71.6081C118.345 71.3636 117.671 71.1888 116.726 71.0837L116.113 76.2624ZM116.024 77.0189L115.525 81.2375L115.458 81.7213C115.417 82.0704 115.473 82.3458 115.626 82.5475C115.786 82.7435 116.041 82.8621 116.39 82.9034C116.907 82.9645 117.396 82.9076 117.856 82.7325C118.323 82.5518 118.699 82.2586 118.983 81.8529C119.267 81.4408 119.441 80.9664 119.505 80.4298C119.578 79.8156 119.5 79.2492 119.273 78.7307C119.047 78.2057 118.696 77.8167 118.221 77.5639C117.746 77.3111 117.014 77.1294 116.024 77.0189Z" fill="black"/>
<path d="M134.344 78.7151L134.394 82.4257C134.404 83.1418 134.452 83.5936 134.54 83.7813C134.633 83.9623 134.791 84.1067 135.014 84.2144C135.237 84.3221 135.651 84.3718 136.257 84.3637L136.261 84.725L129.485 84.8162L129.48 84.4549C130.092 84.4466 130.504 84.3857 130.718 84.2722C130.937 84.152 131.088 84.0002 131.171 83.8168C131.259 83.6333 131.299 83.1835 131.289 82.4675L131.174 73.8745C131.164 73.1584 131.112 72.7098 131.019 72.5288C130.932 72.3411 130.777 72.1935 130.554 72.0858C130.331 71.9781 129.917 71.9283 129.311 71.9365L129.306 71.5752L135.458 71.4924C137.06 71.4709 138.233 71.5658 138.978 71.7771C139.723 71.9885 140.334 72.3904 140.811 72.983C141.288 73.5691 141.531 74.2625 141.542 75.0632C141.555 76.0397 141.214 76.8517 140.52 77.4991C140.076 77.9087 139.452 78.2199 138.648 78.4326L141.891 82.8717C142.316 83.4455 142.617 83.8028 142.794 83.9437C143.064 84.1419 143.375 84.2484 143.727 84.2632L143.731 84.6245L139.562 84.6806L135.213 78.7034L134.344 78.7151ZM134.257 72.2215L134.335 78.0218L134.892 78.0143C135.797 78.0021 136.472 77.9116 136.919 77.7429C137.366 77.5676 137.714 77.2634 137.962 76.8303C138.216 76.3906 138.339 75.8225 138.33 75.126C138.316 74.117 138.068 73.3748 137.587 72.8995C137.112 72.424 136.35 72.1934 135.302 72.2075L134.257 72.2215Z" fill="black"/>
<path d="M152.953 71.0354L153.73 76.3697L153.991 76.3317C154.822 76.2107 155.386 75.8621 155.684 75.2858C155.982 74.7096 156.108 73.905 156.063 72.872L156.43 72.8186L157.429 79.6798L157.062 79.7333C156.876 78.9972 156.622 78.4091 156.302 77.9689C155.988 77.5278 155.654 77.2507 155.302 77.1375C154.949 77.0178 154.46 77.0035 153.836 77.0945L154.373 80.786C154.478 81.5076 154.572 81.9447 154.653 82.0973C154.741 82.249 154.876 82.3642 155.059 82.4428C155.241 82.5215 155.519 82.5337 155.893 82.4792L156.676 82.3653C157.9 82.187 158.838 81.7609 159.489 81.087C160.148 80.4122 160.554 79.4715 160.707 78.2649L161.064 78.2128L161.081 82.4637L149.756 84.1132L149.704 83.7556L150.138 83.6923C150.519 83.6369 150.815 83.5247 151.027 83.3557C151.181 83.2411 151.288 83.0677 151.346 82.8355C151.394 82.6706 151.371 82.2595 151.275 81.6024L150.02 72.9824C149.933 72.3897 149.864 72.028 149.812 71.8974C149.715 71.6813 149.57 71.5248 149.379 71.4277C149.108 71.2829 148.759 71.2415 148.334 71.3035L147.899 71.3668L147.847 71.0092L158.816 69.4119L159.38 73.287L159.013 73.3405C158.688 72.4207 158.325 71.7794 157.923 71.4169C157.528 71.0533 157.007 70.82 156.361 70.7168C155.983 70.6533 155.298 70.6939 154.306 70.8384L152.953 71.0354Z" fill="black"/>
<path d="M181.142 71.0131L182.39 74.5078C182.631 75.1823 182.823 75.5941 182.966 75.7435C183.113 75.8845 183.31 75.9699 183.556 75.9996C183.801 76.0294 184.209 75.9425 184.779 75.7388L184.901 76.0791L178.518 78.3587L178.397 78.0185C178.973 77.8126 179.344 77.6214 179.509 77.4449C179.678 77.2601 179.772 77.0677 179.79 76.8675C179.815 76.6652 179.707 76.2268 179.466 75.5524L176.575 67.4594C176.334 66.785 176.14 66.3772 175.993 66.2362C175.85 66.0869 175.655 65.9973 175.41 65.9676C175.164 65.9378 174.756 66.0247 174.186 66.2284L174.064 65.8881L179.858 63.8187C181.366 63.28 182.507 62.9901 183.281 62.9489C184.054 62.9077 184.762 63.0903 185.405 63.4967C186.046 63.8969 186.501 64.4741 186.77 65.2283C187.099 66.1479 187.039 67.0264 186.592 67.8638C186.304 68.395 185.815 68.8914 185.122 69.353L189.628 72.5034C190.215 72.9089 190.616 73.1496 190.829 73.2253C191.149 73.3256 191.477 73.3258 191.815 73.226L191.936 73.5663L188.009 74.9688L181.96 70.7208L181.142 71.0131ZM178.958 64.8974L180.909 70.3602L181.433 70.1729C182.285 69.8685 182.895 69.5642 183.264 69.2598C183.63 68.9493 183.86 68.549 183.955 68.0589C184.053 67.5606 183.985 66.9834 183.751 66.3273C183.412 65.377 182.937 64.7549 182.328 64.4611C181.724 64.1651 180.929 64.1933 179.942 64.5459L178.958 64.8974Z" fill="black"/>
<path d="M201.928 53.9604L200.711 68.6352L202.953 67.4846C204.013 66.9406 204.72 66.4935 205.074 66.1432C205.657 65.5809 206.054 64.8939 206.267 64.0822C206.477 63.2647 206.436 62.3378 206.146 61.3014L206.485 61.1274L208.192 65.6298L197.401 71.1684L198.617 56.4718L196.871 57.3681C196.193 57.7159 195.758 57.9651 195.564 58.1157C195.198 58.3991 194.893 58.7459 194.649 59.1561C194.409 59.5575 194.265 60.0045 194.218 60.4971C194.177 60.9867 194.235 61.5495 194.393 62.1855L194.072 62.3505L192.623 58.7364L201.928 53.9604Z" fill="black"/>
<path d="M211.508 48.8553L214.561 53.2983L214.778 53.1489C215.471 52.6733 215.823 52.1113 215.836 51.4628C215.848 50.8143 215.606 50.0367 215.109 49.1299L215.415 48.9198L219.342 54.6344L219.036 54.8445C218.544 54.2663 218.057 53.8506 217.575 53.5973C217.098 53.3403 216.677 53.2388 216.311 53.2927C215.941 53.3412 215.496 53.5443 214.976 53.9019L217.088 56.9765C217.501 57.5775 217.778 57.9285 217.919 58.0295C218.064 58.1267 218.237 58.1704 218.435 58.1604C218.634 58.1504 218.888 58.0384 219.2 57.8246L219.852 57.3766C220.871 56.6761 221.524 55.8796 221.812 54.9871C222.104 54.0909 222.053 53.0677 221.658 51.9175L221.955 51.7129L223.848 55.5193L214.415 62.0008L214.21 61.703L214.572 61.4542C214.889 61.2367 215.105 61.0052 215.221 60.7598C215.309 60.5888 215.328 60.3863 215.277 60.1522C215.248 59.9829 215.045 59.6246 214.669 59.0772L209.736 51.8977C209.397 51.4041 209.175 51.1101 209.071 51.0159C208.888 50.8649 208.689 50.7883 208.475 50.7859C208.167 50.7757 207.837 50.8923 207.483 51.1356L207.12 51.3845L206.916 51.0867L216.051 44.8098L218.269 48.0373L217.963 48.2475C217.265 47.5656 216.656 47.1507 216.136 47.0027C215.621 46.851 215.051 46.8716 214.425 47.0646C214.058 47.1745 213.462 47.5133 212.635 48.0811L211.508 48.8553Z" fill="black"/>
<path d="M230.634 32.0661L233.706 35.4765L233.423 35.7314C232.408 35.033 231.397 34.7082 230.39 34.757C229.382 34.8057 228.511 35.1613 227.776 35.8235C227.161 36.3769 226.757 37.061 226.562 37.876C226.367 38.691 226.408 39.4907 226.686 40.275C227.039 41.2799 227.618 42.2299 228.424 43.1248C229.217 44.0053 230.052 44.7081 230.928 45.2333C231.8 45.7537 232.64 45.9866 233.45 45.9321C234.255 45.8728 235.035 45.5033 235.79 44.8236C236.409 44.2659 236.853 43.6207 237.122 42.8879C237.395 42.1508 237.519 41.1938 237.493 40.0169L238.258 40.8659C238.225 41.9383 238.026 42.8752 237.661 43.6767C237.297 44.469 236.716 45.2246 235.918 45.9436C234.868 46.889 233.745 47.5195 232.548 47.835C231.357 48.1461 230.183 48.1078 229.028 47.7201C227.877 47.3281 226.901 46.687 226.1 45.7969C225.254 44.8584 224.697 43.7483 224.427 42.4665C224.163 41.1804 224.237 39.9304 224.651 38.7166C225.07 37.4984 225.748 36.4667 226.687 35.6214C227.378 34.9984 228.244 34.4904 229.283 34.0976C229.885 33.8709 230.247 33.7031 230.368 33.5941C230.522 33.4547 230.605 33.2793 230.616 33.0678C230.628 32.8471 230.539 32.5982 230.351 32.321L230.634 32.0661Z" fill="black"/>
<path d="M242.426 19.3485L246.883 33.3831L248.518 31.4666C249.291 30.5603 249.775 29.8778 249.97 29.4191C250.295 28.6776 250.401 27.8911 250.289 27.0595C250.172 26.2237 249.782 25.3817 249.119 24.5336L249.367 24.2439L252.658 27.7587L244.785 36.9849L240.32 22.9301L239.046 24.4232C238.551 25.0026 238.243 25.3987 238.122 25.6116C237.89 26.0132 237.74 26.4499 237.671 26.9218C237.602 27.3844 237.639 27.8525 237.782 28.3261C237.93 28.7946 238.198 29.2929 238.586 29.821L238.352 30.0959L235.637 27.3043L242.426 19.3485Z" fill="black"/>
<path d="M253.463 3.24409L253.767 3.44068C253.579 3.83855 253.503 4.18894 253.539 4.49185C253.591 4.91374 253.937 5.75085 254.576 7.00318L257.037 12.0209L259.724 13.7636C260.298 14.1356 260.675 14.3375 260.856 14.3695C261.032 14.398 261.231 14.3603 261.453 14.2563C261.674 14.1433 261.88 13.9394 262.071 13.6444L262.475 13.0217L262.778 13.2183L258.735 19.4537L258.432 19.2571L258.809 18.6754C259.022 18.3476 259.133 18.0509 259.142 17.7854C259.157 17.5938 259.099 17.3968 258.966 17.1944C258.874 17.0493 258.55 16.7961 257.992 16.4348L255.764 14.9896L249.308 14.5165C248.032 14.4262 247.243 14.4344 246.941 14.5412C246.634 14.6444 246.362 14.8718 246.126 15.2233L245.823 15.0267L249.277 9.70076L249.58 9.89735L249.426 10.135C249.217 10.4573 249.116 10.7141 249.124 10.9054C249.135 11.0912 249.193 11.2178 249.297 11.2851C249.494 11.4126 250.13 11.5147 251.205 11.5913L256.186 11.9694L254.131 7.79708C253.634 6.76867 253.251 6.16769 252.984 5.99412C252.836 5.89849 252.667 5.8898 252.477 5.96807C252.22 6.06524 251.917 6.35351 251.567 6.83289L251.264 6.6363L253.463 3.24409Z" fill="black"/>
</svg>
